<svg width="149" height="28" viewBox="0 0 149 28" fill="none" xmlns="http://www.w3.org/2000/svg">
<g clip-path="url(#clip0_932_12352)">
<path d="M11.9586 0.761965C13.1292 -0.253988 14.8708 -0.253989 16.0414 0.761965L26.9303 10.2124C27.6098 10.8022 28 11.657 28 12.5558V24.8942C28 26.6093 26.607 27.9995 24.8889 27.9995H3.11111C1.39289 27.9995 4.92108e-06 26.6093 0 24.8942V12.5558C1.73605e-07 11.657 0.390196 10.8022 1.06975 10.2124L11.9586 0.761965ZM14.009 5.97736C12.2908 5.97736 10.8979 7.36768 10.8979 9.08272C10.8979 9.28542 10.9174 9.4836 10.9546 9.67548C10.9928 9.8728 10.9446 10.081 10.8022 10.2232L9.07343 11.9487C8.92547 12.0964 8.70663 12.143 8.50363 12.0924C8.21315 12.02 7.90922 11.9815 7.5963 11.9815C5.53443 11.9815 3.86296 13.6499 3.86296 15.708C3.86296 17.766 5.53443 19.4344 7.5963 19.4344C7.90891 19.4344 8.21256 19.396 8.50274 19.3238C8.70569 19.2732 8.92451 19.3198 9.07244 19.4674L10.8019 21.1937C10.9441 21.3357 10.9924 21.5438 10.9543 21.7411C10.9173 21.9324 10.8979 22.1302 10.8979 22.3323C10.8979 24.0474 12.2908 25.4377 14.009 25.4377C15.7273 25.4377 17.1201 24.0474 17.1202 22.3323C17.1202 22.0137 17.072 21.7063 16.9827 21.4169C16.9163 21.2016 16.9563 20.9618 17.1159 20.8025L18.5023 19.4187C18.6494 19.2719 18.8666 19.2249 19.0687 19.2741C19.3528 19.3432 19.6497 19.3798 19.9552 19.3798C22.017 19.3798 23.6885 17.7114 23.6885 15.6534C23.6885 13.5954 22.017 11.927 19.9552 11.927C19.6629 11.927 19.3785 11.9605 19.1056 12.0239C18.9053 12.0705 18.6909 12.0229 18.5455 11.8776L17.1529 10.4876C16.9989 10.3339 16.9558 10.1045 17.0126 9.89474C17.0827 9.63591 17.1202 9.36368 17.1202 9.08272C17.1202 7.36765 15.7273 5.97736 14.009 5.97736ZM11.9344 11.966C12.1197 11.7811 12.4087 11.7591 12.6441 11.874C13.0562 12.0751 13.5194 12.1881 14.009 12.1881C14.4264 12.1881 14.8245 12.106 15.1881 11.9573C15.4161 11.864 15.6841 11.8945 15.8583 12.0685L16.7247 12.9333C16.9231 13.1314 16.9342 13.4455 16.7857 13.6832C16.4283 14.2547 16.2218 14.93 16.2218 15.6534C16.2218 16.365 16.4216 17.0299 16.7683 17.5955C16.9137 17.8326 16.9012 18.1439 16.7042 18.3405L15.7424 19.3005C15.5736 19.469 15.3161 19.5033 15.0923 19.4203C14.7549 19.2953 14.39 19.227 14.009 19.227C13.5189 19.227 13.0553 19.3401 12.6429 19.5416C12.4075 19.6567 12.1183 19.6347 11.933 19.4497L10.8582 18.377C10.6621 18.1812 10.6488 17.8715 10.7924 17.6347C11.1334 17.0725 11.3296 16.4131 11.3296 15.708C11.3296 15.0031 11.1335 14.3439 10.7929 13.7819C10.6493 13.545 10.6627 13.2354 10.8588 13.0397L11.9344 11.966Z" fill="url(#paint0_linear_932_12352)"/>
</g>
<path d="M57.1108 22.4999H53.7775V10.6999L43.333 22.4999H39.333V6.94434H42.6663V18.611L53.1108 6.94434H57.1108V22.4999Z" fill="#334155"/>
<path d="M77.56 22.4999H74.2267V10.6999L63.7822 22.4999H59.7822V6.94434H63.1156V18.611L73.56 6.94434H77.56V22.4999Z" fill="#334155"/>
<path d="M86.9805 22.5001V7.1001H92.5905C93.6318 7.1001 94.5265 7.21743 95.2745 7.4521C96.0371 7.6721 96.6678 8.0021 97.1665 8.4421C97.6651 8.86743 98.0318 9.38077 98.2665 9.9821C98.5158 10.5834 98.6405 11.2581 98.6405 12.0061C98.6405 12.7541 98.5158 13.4288 98.2665 14.0301C98.0318 14.6314 97.6651 15.1521 97.1665 15.5921C96.6678 16.0174 96.0371 16.3474 95.2745 16.5821C94.5265 16.8021 93.6318 16.9121 92.5905 16.9121H89.6205V22.5001H86.9805ZM89.6205 14.6241H92.3705C93.0598 14.6241 93.6391 14.5728 94.1085 14.4701C94.5778 14.3528 94.9518 14.1914 95.2305 13.9861C95.5091 13.7661 95.7071 13.4948 95.8245 13.1721C95.9418 12.8348 96.0005 12.4461 96.0005 12.0061C96.0005 11.5661 95.9418 11.1848 95.8245 10.8621C95.7071 10.5394 95.5091 10.2681 95.2305 10.0481C94.9518 9.8281 94.5778 9.66676 94.1085 9.5641C93.6391 9.44677 93.0598 9.3881 92.3705 9.3881H89.6205V14.6241Z" fill="#334155"/>
<path d="M105.909 22.7421C105.146 22.7421 104.413 22.6248 103.709 22.3901C103.02 22.1408 102.411 21.7741 101.883 21.2901C101.37 20.7914 100.959 20.1681 100.651 19.4201C100.343 18.6721 100.189 17.7921 100.189 16.7801V16.3401C100.189 15.3721 100.336 14.5288 100.629 13.8101C100.922 13.0914 101.318 12.4974 101.817 12.0281C102.33 11.5441 102.917 11.1848 103.577 10.9501C104.237 10.7154 104.941 10.5981 105.689 10.5981C107.464 10.5981 108.82 11.0748 109.759 12.0281C110.712 12.9814 111.189 14.3454 111.189 16.1201V17.3521H102.653C102.668 17.9534 102.763 18.4668 102.939 18.8921C103.13 19.3028 103.372 19.6401 103.665 19.9041C103.973 20.1534 104.318 20.3368 104.699 20.4541C105.095 20.5714 105.498 20.6301 105.909 20.6301C106.745 20.6301 107.354 20.4981 107.735 20.2341C108.131 19.9701 108.402 19.6254 108.549 19.2001H110.969C110.852 19.7721 110.646 20.2854 110.353 20.7401C110.06 21.1801 109.693 21.5468 109.253 21.8401C108.813 22.1334 108.307 22.3534 107.735 22.5001C107.178 22.6614 106.569 22.7421 105.909 22.7421ZM105.799 12.7101C105.388 12.7101 104.992 12.7614 104.611 12.8641C104.244 12.9668 103.914 13.1354 103.621 13.3701C103.342 13.5901 103.115 13.8834 102.939 14.2501C102.763 14.6021 102.668 15.0348 102.653 15.5481H108.769C108.754 14.9908 108.666 14.5361 108.505 14.1841C108.358 13.8174 108.153 13.5241 107.889 13.3041C107.625 13.0841 107.317 12.9301 106.965 12.8421C106.613 12.7541 106.224 12.7101 105.799 12.7101Z" fill="#334155"/>
<path d="M113.611 22.5001V10.8401H116.031V15.5261H121.531V10.8401H123.951V22.5001H121.531V17.5941H116.031V22.5001H113.611Z" fill="#334155"/>
<path d="M129.789 22.5001V12.9081H125.939V10.8401H136.059V12.9081H132.209V22.5001H129.789Z" fill="#334155"/>
<path d="M140.804 22.7421C140.173 22.7421 139.609 22.6541 139.11 22.4781C138.626 22.2874 138.215 22.0308 137.878 21.7081C137.541 21.3708 137.284 20.9821 137.108 20.5421C136.932 20.1021 136.844 19.6181 136.844 19.0901C136.844 18.5181 136.932 18.0194 137.108 17.5941C137.284 17.1541 137.541 16.7948 137.878 16.5161C138.215 16.2228 138.641 16.0101 139.154 15.8781C139.667 15.7314 140.254 15.6581 140.914 15.6581H144.544V15.0201C144.544 14.5801 144.493 14.2134 144.39 13.9201C144.302 13.6268 144.155 13.3921 143.95 13.2161C143.759 13.0254 143.51 12.8934 143.202 12.8201C142.909 12.7468 142.549 12.7101 142.124 12.7101C141.757 12.7101 141.435 12.7394 141.156 12.7981C140.877 12.8568 140.643 12.9448 140.452 13.0621C140.276 13.1794 140.137 13.3188 140.034 13.4801C139.946 13.6414 139.887 13.8248 139.858 14.0301H137.504C137.533 13.5314 137.658 13.0768 137.878 12.6661C138.113 12.2408 138.428 11.8741 138.824 11.5661C139.235 11.2581 139.726 11.0234 140.298 10.8621C140.87 10.6861 141.515 10.5981 142.234 10.5981C142.953 10.5981 143.598 10.6788 144.17 10.8401C144.757 11.0014 145.255 11.2581 145.666 11.6101C146.077 11.9474 146.392 12.3874 146.612 12.9301C146.847 13.4728 146.964 14.1254 146.964 14.8881V19.5301C146.964 20.1461 146.971 20.6888 146.986 21.1581C147.001 21.6128 147.037 22.0601 147.096 22.5001H144.896C144.881 22.3241 144.859 22.1701 144.83 22.0381C144.815 21.9061 144.801 21.7741 144.786 21.6421C144.786 21.5101 144.779 21.3781 144.764 21.2461C144.764 21.0994 144.764 20.9381 144.764 20.7621C144.632 21.0261 144.441 21.2828 144.192 21.5321C143.957 21.7668 143.671 21.9794 143.334 22.1701C142.997 22.3461 142.615 22.4854 142.19 22.5881C141.765 22.6908 141.303 22.7421 140.804 22.7421ZM141.464 20.6301C141.875 20.6301 142.263 20.5788 142.63 20.4761C143.011 20.3588 143.341 20.1974 143.62 19.9921C143.899 19.7721 144.119 19.5081 144.28 19.2001C144.456 18.8774 144.544 18.5108 144.544 18.1001V17.4621H141.354C140.738 17.4621 140.239 17.5941 139.858 17.8581C139.491 18.1221 139.308 18.5108 139.308 19.0241C139.308 19.5081 139.477 19.8968 139.814 20.1901C140.166 20.4834 140.716 20.6301 141.464 20.6301Z" fill="#334155"/>
<defs>
<linearGradient id="paint0_linear_932_12352" x1="14" y1="27.9995" x2="14" y2="1.06159" gradientUnits="userSpaceOnUse">
<stop stop-color="#0F172A"/>
<stop offset="1" stop-color="#475569"/>
</linearGradient>
<clipPath id="clip0_932_12352">
<rect width="28" height="28" fill="white"/>
</clipPath>
</defs>
</svg>
