<svg width="170" height="32" viewBox="0 0 170 32" fill="none" xmlns="http://www.w3.org/2000/svg">
<g clip-path="url(#clip0_929_1361)">
<path d="M13.6441 0.896212C14.9797 -0.262929 16.9667 -0.262931 18.3022 0.896212L30.7258 11.6786C31.5011 12.3515 31.9463 13.3267 31.9463 14.3523V28.4296C31.9463 30.3865 30.357 31.9726 28.3967 31.9726H3.54959C1.58921 31.9726 5.61465e-06 30.3865 0 28.4296V14.3523C1.98073e-07 13.3267 0.44519 12.3515 1.22052 11.6786L13.6441 0.896212ZM15.9835 6.84666C14.0231 6.84666 12.4339 8.43293 12.4339 10.3897C12.4339 10.621 12.4561 10.8471 12.4985 11.066C12.5422 11.2911 12.4871 11.5287 12.3246 11.6909L10.3522 13.6596C10.1834 13.8281 9.93373 13.8812 9.70212 13.8235C9.37071 13.7409 9.02394 13.697 8.66691 13.697C6.31445 13.697 4.40741 15.6006 4.40741 17.9487C4.40741 20.2968 6.31445 22.2003 8.66691 22.2003C9.02359 22.2003 9.37003 22.1565 9.70112 22.0741C9.93267 22.0164 10.1823 22.0696 10.3511 22.238L12.3243 24.2076C12.4866 24.3696 12.5416 24.6071 12.4982 24.8321C12.456 25.0505 12.4339 25.276 12.4339 25.5067C12.4339 27.4634 14.0231 29.0497 15.9835 29.0497C17.9439 29.0497 19.533 27.4634 19.5331 25.5067C19.5331 25.1431 19.4782 24.7924 19.3763 24.4622C19.3004 24.2166 19.3462 23.943 19.5282 23.7613L21.1101 22.1824C21.2778 22.0149 21.5257 21.9613 21.7562 22.0174C22.0804 22.0962 22.4191 22.1381 22.7676 22.1381C25.1201 22.1381 27.0271 20.2345 27.0271 17.8864C27.0271 15.5383 25.1201 13.6348 22.7676 13.6348C22.4342 13.6348 22.1097 13.6731 21.7984 13.7454C21.5698 13.7985 21.3252 13.7442 21.1593 13.5785L19.5704 11.9926C19.3948 11.8173 19.3456 11.5555 19.4104 11.3162C19.4904 11.0209 19.5331 10.7102 19.5331 10.3897C19.5331 8.4329 17.9439 6.84666 15.9835 6.84666ZM13.6165 13.6794C13.8279 13.4684 14.1576 13.4433 14.4262 13.5744C14.8964 13.8039 15.4248 13.9327 15.9835 13.9327C16.4596 13.9327 16.9138 13.8391 17.3287 13.6694C17.5889 13.5629 17.8946 13.5978 18.0934 13.7963L19.0819 14.783C19.3083 15.0089 19.3209 15.3674 19.1514 15.6385C18.7437 16.2906 18.5081 17.0611 18.5081 17.8864C18.5081 18.6983 18.7361 19.457 19.1316 20.1023C19.2975 20.3728 19.2832 20.7279 19.0585 20.9522L17.9611 22.0475C17.7685 22.2398 17.4747 22.2789 17.2194 22.1843C16.8345 22.0416 16.4181 21.9637 15.9835 21.9637C15.4243 21.9637 14.8953 22.0927 14.4248 22.3227C14.1562 22.4539 13.8263 22.4288 13.6148 22.2178L12.3886 20.9939C12.1649 20.7705 12.1497 20.4172 12.3135 20.147C12.7025 19.5056 12.9264 18.7532 12.9264 17.9487C12.9264 17.1445 12.7027 16.3924 12.314 15.7511C12.1502 15.4809 12.1655 15.1277 12.3892 14.9044L13.6165 13.6794Z" fill="url(#paint0_linear_929_1361)"/>
</g>
<path d="M65.1603 25.7143H61.3572V12.2286L49.4407 25.7143H44.877V7.93652H48.6801V21.2699L60.5966 7.93652H65.1603V25.7143Z" fill="white"/>
<path d="M88.4916 25.7143H84.6885V12.2286L72.772 25.7143H68.2083V7.93652H72.0114V21.2699L83.9279 7.93652H88.4916V25.7143Z" fill="white"/>
<path d="M99.2393 25.7143V8.11426H105.64C106.828 8.11426 107.849 8.24835 108.702 8.51654C109.572 8.76797 110.292 9.14512 110.861 9.64797C111.43 10.1341 111.848 10.7207 112.116 11.408C112.4 12.0952 112.543 12.8663 112.543 13.7211C112.543 14.576 112.4 15.347 112.116 16.0343C111.848 16.7215 111.43 17.3165 110.861 17.8194C110.292 18.3055 109.572 18.6826 108.702 18.9508C107.849 19.2023 106.828 19.328 105.64 19.328H102.251V25.7143H99.2393ZM102.251 16.7131H105.389C106.175 16.7131 106.836 16.6544 107.372 16.5371C107.907 16.403 108.334 16.2186 108.652 15.984C108.97 15.7325 109.196 15.4224 109.33 15.0537C109.464 14.6682 109.531 14.224 109.531 13.7211C109.531 13.2183 109.464 12.7824 109.33 12.4137C109.196 12.0449 108.97 11.7348 108.652 11.4834C108.334 11.232 107.907 11.0476 107.372 10.9303C106.836 10.7962 106.175 10.7291 105.389 10.7291H102.251V16.7131Z" fill="white"/>
<path d="M120.836 25.9908C119.965 25.9908 119.129 25.8567 118.326 25.5885C117.539 25.3036 116.845 24.8845 116.242 24.3314C115.657 23.7615 115.188 23.0491 114.837 22.1943C114.485 21.3394 114.309 20.3337 114.309 19.1771V18.6743C114.309 17.568 114.477 16.6042 114.811 15.7828C115.146 14.9615 115.598 14.2826 116.167 13.7463C116.753 13.1931 117.422 12.7824 118.175 12.5143C118.928 12.2461 119.731 12.112 120.585 12.112C122.609 12.112 124.157 12.6567 125.228 13.7463C126.316 14.8358 126.86 16.3946 126.86 18.4228V19.8308H117.121C117.137 20.5181 117.246 21.1047 117.447 21.5908C117.665 22.0602 117.941 22.4457 118.275 22.7474C118.627 23.0324 119.02 23.2419 119.455 23.376C119.907 23.5101 120.367 23.5771 120.836 23.5771C121.789 23.5771 122.484 23.4263 122.919 23.1245C123.371 22.8228 123.68 22.4289 123.848 21.9428H126.609C126.475 22.5965 126.241 23.1832 125.906 23.7028C125.571 24.2057 125.153 24.6247 124.651 24.96C124.149 25.2952 123.572 25.5466 122.919 25.7143C122.283 25.8986 121.589 25.9908 120.836 25.9908ZM120.71 14.5257C120.242 14.5257 119.79 14.5844 119.355 14.7017C118.936 14.819 118.56 15.0118 118.225 15.28C117.907 15.5314 117.648 15.8666 117.447 16.2857C117.246 16.688 117.137 17.1824 117.121 17.7691H124.099C124.082 17.1322 123.982 16.6125 123.798 16.2103C123.63 15.7912 123.396 15.456 123.095 15.2045C122.793 14.9531 122.442 14.7771 122.04 14.6765C121.639 14.576 121.195 14.5257 120.71 14.5257Z" fill="white"/>
<path d="M129.623 25.7143V12.3885H132.384V17.744H138.659V12.3885H141.42V25.7143H138.659V20.1074H132.384V25.7143H129.623Z" fill="white"/>
<path d="M148.081 25.7143V14.752H143.688V12.3885H155.234V14.752H150.842V25.7143H148.081Z" fill="white"/>
<path d="M160.649 25.9908C159.929 25.9908 159.285 25.8903 158.716 25.6891C158.164 25.4712 157.695 25.1779 157.31 24.8091C156.925 24.4236 156.633 23.9794 156.432 23.4765C156.231 22.9737 156.131 22.4205 156.131 21.8171C156.131 21.1634 156.231 20.5935 156.432 20.1074C156.633 19.6045 156.925 19.1939 157.31 18.8754C157.695 18.5402 158.18 18.2971 158.766 18.1463C159.352 17.9786 160.021 17.8948 160.774 17.8948H164.916V17.1657C164.916 16.6628 164.857 16.2438 164.74 15.9085C164.64 15.5733 164.472 15.3051 164.238 15.104C164.02 14.8861 163.736 14.7352 163.385 14.6514C163.05 14.5676 162.64 14.5257 162.155 14.5257C161.736 14.5257 161.368 14.5592 161.05 14.6263C160.732 14.6933 160.465 14.7939 160.247 14.928C160.046 15.0621 159.887 15.2213 159.77 15.4057C159.67 15.5901 159.603 15.7996 159.569 16.0343H156.884C156.917 15.4644 157.059 14.9447 157.31 14.4754C157.578 13.9893 157.938 13.5703 158.39 13.2183C158.858 12.8663 159.419 12.5981 160.071 12.4137C160.724 12.2125 161.46 12.112 162.28 12.112C163.1 12.112 163.836 12.2042 164.489 12.3885C165.158 12.5729 165.727 12.8663 166.196 13.2685C166.664 13.6541 167.024 14.1569 167.275 14.7771C167.543 15.3973 167.677 16.1432 167.677 17.0148V22.32C167.677 23.024 167.685 23.6442 167.702 24.1805C167.719 24.7002 167.76 25.2114 167.827 25.7143H165.317C165.301 25.5131 165.276 25.3371 165.242 25.1863C165.225 25.0354 165.209 24.8845 165.192 24.7337C165.192 24.5828 165.183 24.432 165.167 24.2811C165.167 24.1135 165.167 23.9291 165.167 23.728C165.016 24.0297 164.799 24.323 164.514 24.608C164.246 24.8762 163.92 25.1192 163.535 25.3371C163.15 25.5383 162.715 25.6975 162.23 25.8148C161.745 25.9322 161.218 25.9908 160.649 25.9908ZM161.402 23.5771C161.87 23.5771 162.314 23.5185 162.732 23.4011C163.167 23.267 163.544 23.0826 163.862 22.848C164.179 22.5965 164.43 22.2948 164.615 21.9428C164.815 21.5741 164.916 21.155 164.916 20.6857V19.9565H161.276C160.573 19.9565 160.004 20.1074 159.569 20.4091C159.151 20.7108 158.942 21.155 158.942 21.7417C158.942 22.2948 159.134 22.739 159.519 23.0743C159.921 23.4095 160.548 23.5771 161.402 23.5771Z" fill="white"/>
<defs>
<linearGradient id="paint0_linear_929_1361" x1="15.9732" y1="0.0268555" x2="15.9732" y2="31.9726" gradientUnits="userSpaceOnUse">
<stop stop-color="white"/>
<stop offset="1" stop-color="#94A3B8"/>
</linearGradient>
<clipPath id="clip0_929_1361">
<rect width="31.9463" height="31.9463" fill="white" transform="translate(0 0.0268555)"/>
</clipPath>
</defs>
</svg>
