<svg width="80" height="80" viewBox="0 0 80 80" fill="none" xmlns="http://www.w3.org/2000/svg">
<g clip-path="url(#clip0_1447_3192)">
<path d="M77.2542 33.3709L46.6292 2.74594C44.8586 0.975156 42.5042 0 40 0C37.4958 0 35.1414 0.975156 33.3708 2.74594L2.74578 33.3709C0.975156 35.1416 0 37.4959 0 40C0 42.5041 0.975156 44.8584 2.74578 46.6291L33.3708 77.2541C35.1414 79.0248 37.4958 80 40 80C42.5042 80 44.8586 79.0248 46.6292 77.2541L77.2542 46.6291C79.0248 44.8584 80 42.5041 80 40C80 37.4959 79.0248 35.1416 77.2542 33.3709ZM72.8347 42.2097L42.2097 72.8347C41.6194 73.425 40.8348 73.75 40 73.75C39.1652 73.75 38.3806 73.425 37.7903 72.8347L7.16531 42.2097C6.575 41.6194 6.25 40.8347 6.25 40C6.25 39.1653 6.575 38.3806 7.16531 37.7903L37.7903 7.16531C38.3806 6.575 39.1652 6.25 40 6.25C40.8348 6.25 41.6194 6.575 42.2097 7.16531L72.8347 37.7903C73.425 38.3806 73.75 39.1653 73.75 40C73.75 40.8347 73.425 41.6194 72.8347 42.2097ZM40 49.375C38.2741 49.375 36.875 50.7741 36.875 52.5C36.875 54.2259 38.2741 55.625 40 55.625C41.7259 55.625 43.125 54.2259 43.125 52.5C43.125 50.7741 41.7259 49.375 40 49.375ZM36.875 43.125H43.125V24.375H36.875V43.125Z" fill="url(#paint0_linear_1447_3192)"/>
</g>
<defs>
<linearGradient id="paint0_linear_1447_3192" x1="40" y1="80" x2="40" y2="0" gradientUnits="userSpaceOnUse">
<stop stop-color="#F59E0B"/>
<stop offset="1" stop-color="#FEF3C7"/>
</linearGradient>
<clipPath id="clip0_1447_3192">
<rect width="80" height="80" fill="white"/>
</clipPath>
</defs>
</svg>
