<svg width="80" height="80" viewBox="0 0 80 80" fill="none" xmlns="http://www.w3.org/2000/svg">
<path d="M33.995 44.0272C35.0499 44.0273 36.0616 44.4465 36.8075 45.1925C37.5535 45.9384 37.9727 46.9501 37.9728 48.005C37.9728 49.0598 37.5534 50.0715 36.8075 50.8175C36.0616 51.5634 35.0499 51.9826 33.995 51.9827H25.991L25.5928 51.9874C21.4858 52.0941 17.5695 53.7723 14.6572 56.6845C11.651 59.6907 9.9605 63.7669 9.95541 68.0183C9.95583 70.2368 11.764 72.0446 13.9827 72.0446H33.875C34.9298 72.0446 35.9416 72.4639 36.6875 73.2098C37.4334 73.9557 37.8526 74.9675 37.8527 76.0223C37.8527 77.0771 37.4333 78.0889 36.6875 78.8348C35.9416 79.5807 34.9299 80 33.875 80H13.9817C10.8047 79.9977 7.75832 78.7347 5.51181 76.4882C3.26531 74.2417 2.00233 71.1953 2 68.0183V68.0164L2.00762 67.4209C2.16728 61.277 4.67849 55.4189 9.03506 51.0623C13.5321 46.5653 19.6293 44.035 25.9891 44.0272H33.995ZM58.0099 40.0248C59.0648 40.0248 60.0765 40.4441 60.8224 41.19C61.5683 41.9359 61.9876 42.9476 61.9876 44.0025V45.9375C63.0868 46.2508 64.1446 46.6929 65.1402 47.2542L66.5103 45.8822C66.8796 45.513 67.3178 45.2199 67.8003 45.02C68.2829 44.8201 68.8004 44.7171 69.3228 44.717C69.8452 44.717 70.3626 44.8201 70.8453 45.02C71.3279 45.2199 71.7668 45.5128 72.1362 45.8822C72.5057 46.2517 72.7985 46.6905 72.9985 47.1732C73.1984 47.6559 73.3014 48.1733 73.3014 48.6957C73.3014 49.2181 73.1984 49.7356 72.9985 50.2182C72.7987 50.7005 72.5053 51.138 72.1362 51.5072L70.7671 52.8801C71.3293 53.8762 71.7716 54.9346 72.0848 56.0347H74.0198C75.0719 56.0367 76.0806 56.4558 76.8247 57.1999C77.5706 57.9458 77.9899 58.9576 77.9899 60.0124C77.9899 61.0672 77.5705 62.079 76.8247 62.8249C76.0788 63.5708 75.067 63.99 74.0122 63.9901H72.0772C71.7605 65.1034 71.314 66.1576 70.7586 67.1437L72.1277 68.5166L72.263 68.6576C72.5694 68.9956 72.8158 69.3842 72.9909 69.8066C73.1909 70.2893 73.2938 70.8075 73.2938 71.33C73.2938 71.8524 73.1908 72.3699 72.9909 72.8525C72.7911 73.3345 72.4975 73.7716 72.1286 74.1406L72.1296 74.1416C71.7608 74.5118 71.3222 74.8052 70.8396 75.0057C70.3569 75.2062 69.8397 75.3096 69.3171 75.3096C68.7945 75.3096 68.2772 75.2062 67.7946 75.0057C67.312 74.8052 66.8733 74.5118 66.5046 74.1416L65.1364 72.7696C64.1407 73.331 63.0831 73.7729 61.9838 74.0863V76.0223C61.9838 77.0771 61.5644 78.0889 60.8186 78.8348C60.0727 79.5807 59.061 80 58.0061 80C56.9512 80 55.9395 79.5807 55.1936 78.8348C54.4477 78.0889 54.0284 77.0772 54.0284 76.0223V74.0882C52.9154 73.7716 51.8616 73.3249 50.8758 72.7696L49.5067 74.1416L49.4933 74.1549C48.7428 74.879 47.7379 75.2792 46.6951 75.2696C45.6523 75.26 44.6549 74.8412 43.9179 74.1035C43.1809 73.3657 42.7631 72.368 42.7546 71.3253C42.746 70.2824 43.1473 69.2778 43.8721 68.528L43.8826 68.5175L45.2527 67.1437C44.6972 66.1586 44.2505 65.1031 43.9341 63.9901H42C40.9451 63.9901 39.9334 63.5708 39.1875 62.8249C38.4416 62.079 38.0223 61.0673 38.0223 60.0124C38.0223 58.9575 38.4416 57.9458 39.1875 57.1999C39.9334 56.454 40.9451 56.0347 42 56.0347H43.9341C44.2508 54.9214 44.6972 53.8671 45.2527 52.8811L43.8826 51.5082C43.1374 50.7623 42.7184 49.7502 42.7184 48.6957C42.7184 47.6406 43.1375 46.6283 43.8836 45.8822C44.6297 45.1361 45.6419 44.717 46.697 44.717C47.6862 44.7171 48.6378 45.0851 49.3676 45.746L49.5105 45.8822L50.8786 47.2542C51.8745 46.6927 52.9327 46.2509 54.0322 45.9375V44.0025C54.0322 42.9476 54.4515 41.9359 55.1974 41.19C55.9433 40.4441 56.955 40.0248 58.0099 40.0248ZM58.0137 53.3317C56.3027 53.3318 54.6591 53.9897 53.4205 55.1667C53.3911 55.2081 53.3538 55.2573 53.3043 55.3068C53.2563 55.3547 53.2081 55.3913 53.1662 55.4211C52.0243 56.6274 51.3208 58.2429 51.3207 60.0162C51.3207 61.7885 52.0245 63.4024 53.1652 64.6084C53.1892 64.6255 53.2167 64.6456 53.2452 64.6703L53.3643 64.7914L53.4177 64.8628C54.6566 66.0417 56.3012 66.7015 58.0137 66.7016C59.7249 66.7016 61.3683 66.0427 62.6069 64.8657C62.6363 64.8243 62.6737 64.7751 62.7231 64.7256C62.771 64.6777 62.8194 64.6411 62.8613 64.6113C64.0395 63.3725 64.6991 61.7283 64.6991 60.0162C64.699 58.3077 64.0426 56.6666 62.8689 55.4287C62.8122 55.3889 62.7368 55.3292 62.6641 55.242C62.6421 55.2156 62.6235 55.1901 62.6078 55.1677C61.3692 53.9902 59.7252 53.3317 58.0137 53.3317ZM62.5211 65.0038L62.5221 65.0029C62.5228 65.0015 62.5242 64.9983 62.5259 64.9952L62.5316 64.9848C62.5258 64.9948 62.5219 65.0025 62.5211 65.0038ZM53.0347 64.5274C53.0329 64.5264 53.0314 64.5254 53.0299 64.5246L53.0242 64.5217C53.0267 64.523 53.0303 64.5251 53.0347 64.5274ZM53.0109 55.5154C53.0127 55.5145 53.0162 55.5133 53.0194 55.5116C53.0205 55.5111 53.0211 55.5094 53.0223 55.5088C53.0162 55.5119 53.0121 55.5148 53.0109 55.5154ZM37.9975 0C49.0189 1.21745e-05 57.9851 8.96626 57.9851 19.9876C57.9851 31.0089 49.0188 39.9752 37.9975 39.9752C26.9762 39.9752 18.01 31.0089 18.0099 19.9876C18.0099 8.96625 26.9762 0 37.9975 0ZM37.9975 7.95541C31.3639 7.95541 25.9653 13.3539 25.9653 19.9876C25.9654 26.6212 31.3639 32.0198 37.9975 32.0198C44.6311 32.0198 50.0297 26.6212 50.0297 19.9876C50.0297 13.354 44.6312 7.95542 37.9975 7.95541Z" fill="url(#paint0_linear_1681_948)"/>
<defs>
<linearGradient id="paint0_linear_1681_948" x1="39.9949" y1="0" x2="39.9949" y2="80" gradientUnits="userSpaceOnUse">
<stop stop-color="#C7D7FF"/>
<stop offset="1" stop-color="#3771FD"/>
</linearGradient>
</defs>
</svg>
