<svg width="80" height="80" viewBox="0 0 80 80" fill="none" xmlns="http://www.w3.org/2000/svg">
<path d="M59.1934 4.39941C62.0154 4.39941 64.3096 6.69464 64.3096 9.5166V17.9482H70.4834C73.3053 17.9482 75.6005 20.2424 75.6006 23.0645V56.9355C75.6005 59.7576 73.3053 62.0518 70.4834 62.0518H48.5039V63.7939C50.2943 64.1036 52.3761 64.5903 54.0752 65.3555C55.8833 66.1697 57.5359 67.4279 57.5361 69.3545L57.5273 69.582C57.4462 70.7057 56.7677 71.6264 55.7959 72.3535C54.763 73.1263 53.333 73.7364 51.6934 74.209C48.4068 75.1562 44.1119 75.6006 40 75.6006C35.8881 75.6006 31.5932 75.1562 28.3066 74.209C26.667 73.7364 25.237 73.1263 24.2041 72.3535C23.2323 71.6264 22.5538 70.7057 22.4727 69.582L22.4639 69.3545C22.4641 67.4279 24.1167 66.1697 25.9248 65.3555C27.6239 64.5903 29.7057 64.1036 31.4961 63.7939V62.0518H9.5166C6.69466 62.0518 4.39945 59.7576 4.39941 56.9355V23.0645C4.39945 20.2424 6.69466 17.9482 9.5166 17.9482H15.6904V9.5166C15.6904 6.69464 17.9846 4.39941 20.8066 4.39941H59.1934ZM48.5039 71.084H31.4961V67.3105C29.3651 67.7198 27.9438 68.2183 27.0537 68.6621C26.5602 68.9082 26.2453 69.1298 26.0635 69.2949C26.0326 69.323 26.0075 69.3488 25.9863 69.3711C25.9874 69.3722 25.9881 69.3738 25.9893 69.375C26.0934 69.4834 26.2758 69.6283 26.5586 69.7949C27.1215 70.1266 27.9991 70.5001 29.1992 70.8516C31.5938 71.5528 35.2046 72.1416 40 72.1416L40.8857 72.1348C45.2423 72.0675 48.556 71.509 50.8008 70.8516C52.0009 70.5001 52.8785 70.1266 53.4414 69.7949C53.7242 69.6283 53.9066 69.4834 54.0107 69.375C54.0117 69.374 54.0118 69.3721 54.0127 69.3711C53.9916 69.3489 53.9672 69.3228 53.9365 69.2949C53.7547 69.1298 53.4398 68.9082 52.9463 68.6621C52.0562 68.2183 50.6349 67.7198 48.5039 67.3105V71.084ZM34.9551 67.626H45.0449V62.0518H34.9551V67.626ZM7.8584 56.9355L7.86719 57.1045C7.95223 57.9395 8.65972 58.5938 9.5166 58.5938H62.9229L57.3486 53.0195H7.8584V56.9355ZM71.9404 50.0215L63.5693 58.3916L63.3682 58.5938H70.4834C71.3973 58.5938 72.1416 57.8495 72.1416 56.9355V49.8193L71.9404 50.0215ZM36.084 57.5361H32.626V54.0771H36.084V57.5361ZM42.8584 57.5361H37.1416V54.0771H42.8584V57.5361ZM47.374 57.5361H43.916V54.0771H47.374V57.5361ZM50.7617 44.8574L52.2773 43.3418L52.4189 43.2012L52.5605 43.3418L52.8438 43.624L63.1445 53.9248L67.4727 49.5957L56.748 38.8711L58.4062 37.2129H50.7617V44.8574ZM9.5166 21.4062C8.60268 21.4062 7.85843 22.1505 7.8584 23.0645V49.5615H47.3027V48.5039H20.8066C17.9846 48.5039 15.6904 46.2087 15.6904 43.3867V21.4062H9.5166ZM50.9482 49.5615H53.8906L52.4189 48.0898L50.9482 49.5615ZM64.3096 33.7549H66.7549L61.6387 38.8701L72.1416 49.373V23.0645C72.1416 22.1505 71.3973 21.4062 70.4834 21.4062H64.3096V33.7549ZM19.1484 43.3867C19.1484 44.3007 19.8927 45.0449 20.8066 45.0449H47.3027V43.9873H24.7227V35.75C24.7205 35.0093 24.926 34.2825 25.3154 33.6523C25.705 33.0222 26.2629 32.513 26.9268 32.1836L29.2383 31.0273V21.6416C29.2386 21.0656 29.3742 20.4978 29.6328 19.9834L29.7354 19.7939C29.9869 19.3588 30.325 18.9786 30.7295 18.6777C31.1915 18.3341 31.7271 18.1028 32.2939 18.0029C32.861 17.9031 33.4444 17.9374 33.9961 18.1025L43.4043 20.9248C45.1018 21.4346 46.2449 22.9723 46.2451 24.7441V29.2383H51.29C53.4888 29.2383 55.2772 31.0269 55.2773 33.2256V33.7549H60.8516V16.8906H19.1484V43.3867ZM28.1807 39.9385V40.5293H33.7549V37.1514L28.1807 39.9385ZM32.6973 29.3721C33.0091 29.2848 33.3329 29.2383 33.6572 29.2383H33.6631L33.8301 29.2432H33.834C34.7121 29.2875 35.546 29.6555 36.1709 30.2803C36.8375 30.9468 37.2121 31.8514 37.2129 32.7939V40.5293H38.2705V33.2256C38.2706 31.027 40.0592 29.2384 42.2578 29.2383H42.7871V28.9307L32.6973 26.4082V29.3721ZM42.2578 32.6973C41.9673 32.6974 41.7296 32.9351 41.7295 33.2256V40.5293H42.7871V33.7549H46.2451V40.5293H47.3027V33.7549H51.8193V33.2256C51.8192 32.9352 51.581 32.6973 51.29 32.6973H42.2578ZM33.6152 32.7051L33.6133 32.707L28.4736 35.2773C28.2926 35.3677 28.1808 35.5474 28.1807 35.75V36.0723L33.7549 33.2852V32.7949C33.7549 32.791 33.7523 32.771 33.7295 32.748L33.6992 32.7246C33.652 32.6953 33.6222 32.7023 33.6152 32.7051ZM33.0059 21.416C32.9426 21.397 32.8654 21.4115 32.7988 21.4609C32.732 21.5106 32.6974 21.5796 32.6973 21.6416V22.8418L42.7871 25.3643V24.7422C42.7875 24.6291 42.7518 24.5184 42.6846 24.4277C42.6169 24.3366 42.5211 24.2694 42.4131 24.2373L33.0059 21.416ZM20.8066 7.8584C19.8927 7.8584 19.1484 8.60265 19.1484 9.5166V13.4316H60.8516V9.5166C60.8516 8.60265 60.1073 7.8584 59.1934 7.8584H20.8066ZM23.665 12.374H20.2061V8.91602H23.665V12.374ZM28.1807 12.374H24.7227V8.91602H28.1807V12.374ZM32.6973 12.374H29.2383V8.91602H32.6973V12.374Z" fill="url(#paint0_linear_212_4259)"/>
<defs>
<linearGradient id="paint0_linear_212_4259" x1="40" y1="4.39941" x2="40" y2="75.6006" gradientUnits="userSpaceOnUse">
<stop stop-color="#C7D7FF"/>
<stop offset="1" stop-color="#3771FD"/>
</linearGradient>
</defs>
</svg>
