<svg width="80" height="80" viewBox="0 0 80 80" fill="none" xmlns="http://www.w3.org/2000/svg">
<path fill-rule="evenodd" clip-rule="evenodd" d="M39.8102 5.83334H50.0002C50.6632 5.83334 51.2991 6.09674 51.7679 6.56558C52.2368 7.03442 52.5002 7.6703 52.5002 8.33334C52.5002 8.99638 52.2368 9.63227 51.7679 10.1011C51.2991 10.57 50.6632 10.8333 50.0002 10.8333H40.0002C32.4668 10.8333 27.0668 10.84 22.9602 11.39C18.9268 11.9333 16.5168 12.9633 14.7402 14.74C12.9635 16.5167 11.9335 18.9267 11.3902 22.96C10.8402 27.0667 10.8335 32.4667 10.8335 40C10.8335 47.5333 10.8402 52.9333 11.3902 57.04C11.9335 61.0733 12.9635 63.4833 14.7402 65.26C16.5168 67.0367 18.9268 68.0667 22.9602 68.61C27.0668 69.16 32.4668 69.1667 40.0002 69.1667C47.5335 69.1667 52.9335 69.16 57.0402 68.61C61.0735 68.0667 63.4835 67.04 65.2602 65.26C67.0368 63.4833 68.0668 61.0733 68.6102 57.04C69.1602 52.9333 69.1668 47.5333 69.1668 40V33.3333C69.1668 32.6703 69.4302 32.0344 69.8991 31.5656C70.3679 31.0967 71.0038 30.8333 71.6668 30.8333C72.3299 30.8333 72.9658 31.0967 73.4346 31.5656C73.9034 32.0344 74.1668 32.6703 74.1668 33.3333V40.19C74.1668 47.49 74.1668 53.23 73.5668 57.7067C72.9468 62.2967 71.6568 65.9367 68.8002 68.7967C65.9435 71.6567 62.2968 72.9467 57.7068 73.5633C53.2302 74.1667 47.4935 74.1667 40.1902 74.1667H39.8102C32.5102 74.1667 26.7702 74.1667 22.2935 73.5667C17.7035 72.9467 14.0635 71.6567 11.2035 68.8C8.3435 65.9433 7.0535 62.2967 6.43683 57.7067C5.8335 53.23 5.8335 47.4933 5.8335 40.19V39.81C5.8335 32.51 5.8335 26.77 6.4335 22.2933C7.0535 17.7033 8.3435 14.0633 11.2002 11.2033C14.0668 8.34334 17.7035 7.05334 22.2935 6.43668C26.7702 5.83334 32.5068 5.83334 39.8102 5.83334Z" fill="url(#paint0_linear_1447_435)"/>
<path fill-rule="evenodd" clip-rule="evenodd" d="M71.6734 9.81001C72.1661 10.2534 72.4626 10.8744 72.4976 11.5364C72.5326 12.1983 72.3033 12.8471 71.86 13.34L41.86 46.6733C41.6328 46.9256 41.3567 47.1289 41.0484 47.2709C40.7401 47.4129 40.4061 47.4907 40.0667 47.4994C39.7274 47.5081 39.3899 47.4477 39.0747 47.3217C38.7595 47.1957 38.4732 47.0069 38.2334 46.7667L26.5667 35.1C26.3211 34.8711 26.1241 34.5951 25.9874 34.2885C25.8508 33.9818 25.7773 33.6508 25.7714 33.3151C25.7655 32.9794 25.8272 32.646 25.9529 32.3347C26.0787 32.0234 26.2658 31.7406 26.5032 31.5032C26.7406 31.2658 27.0234 31.0787 27.3347 30.9529C27.646 30.8272 27.9794 30.7655 28.3151 30.7714C28.6508 30.7773 28.9818 30.8508 29.2885 30.9874C29.5951 31.1241 29.8711 31.3211 30.1 31.5667L39.9034 41.3667L68.1434 9.99334C68.5872 9.50106 69.2084 9.2052 69.8704 9.17082C70.5324 9.13644 71.1809 9.36635 71.6734 9.81001Z" fill="url(#paint1_linear_1447_435)"/>
<defs>
<linearGradient id="paint0_linear_1447_435" x1="40.0002" y1="5.83334" x2="40.0002" y2="74.1667" gradientUnits="userSpaceOnUse">
<stop stop-color="#C7D7FF"/>
<stop offset="1" stop-color="#3771FD"/>
</linearGradient>
<linearGradient id="paint1_linear_1447_435" x1="49.136" y1="9.16745" x2="49.136" y2="47.5002" gradientUnits="userSpaceOnUse">
<stop stop-color="#C7D7FF"/>
<stop offset="1" stop-color="#3771FD"/>
</linearGradient>
</defs>
</svg>
