<svg width="47" height="44" viewBox="0 0 47 44" fill="none" xmlns="http://www.w3.org/2000/svg">
<path d="M31.9427 18.4296L16.9672 31.7096C8.5169 33.9799 -2.37494 25.8336 0.977783 14.4419C1.26015 13.4802 1.6446 12.4947 2.14079 11.4912L3.40738 8.58156C6.01504 2.83683 16.4107 -1.50154 19.9474 1.19549C19.2024 5.14964 22.6192 6.10312 25.2373 4.70201C25.6843 7.08943 27.0254 9.32762 29.8565 8.20853L31.1969 9.91702L31.7683 10.6452C32.2005 11.1958 32.4821 11.8508 32.5812 12.5439C32.8434 14.377 32.5201 16.369 31.9427 18.4296Z" fill="#FFA840"/>
<path d="M7.26676 4.33821C6.93973 4.527 6.54979 5.1065 6.57543 5.50387C6.58792 5.69738 6.69101 5.85675 6.85407 5.95753C6.92536 6.0016 7.04317 6.05587 7.1279 6.0566C7.15489 6.0639 7.18188 6.07118 7.20889 6.07848C7.14593 5.875 7.08301 5.86528 7.02014 6.04929C6.83421 6.25376 6.72336 6.64487 6.62713 6.89842C6.55053 7.10025 6.51516 7.32585 6.67642 7.5011C6.73476 7.5645 6.83081 7.61759 6.91038 7.64387C7.13289 7.71735 7.0377 7.58897 7.24723 7.85713C7.34807 7.98618 7.47164 8.13659 7.53864 8.28458C7.61333 8.44961 7.59649 8.64415 7.66554 8.81368C7.68349 8.85777 7.74329 8.8622 7.75983 8.81368C7.83053 8.60609 7.78186 8.43947 7.74546 8.22748C7.70559 7.99527 7.69337 7.78984 7.58832 7.57778C7.53147 7.46301 7.47019 7.33623 7.40156 7.2289C7.3425 7.13653 7.34279 7.0588 7.33548 7.19747C7.35009 6.9209 7.60045 6.59916 7.6901 6.33213C7.80226 5.99806 7.79718 5.67581 7.44337 5.51283C7.40964 5.49729 7.22366 5.46621 7.20603 5.44492C7.14717 5.37389 7.23276 5.21671 7.25746 5.15113C7.34733 4.91234 7.48835 4.71798 7.47961 4.46055C7.47596 4.35383 7.36201 4.28323 7.26676 4.33821Z" fill="#EF6A20"/>
<g opacity="0.5">
<path d="M1.21007 15.412C1.49646 14.4504 1.88641 13.4648 2.3897 12.4613L3.67436 9.55169C6.18724 4.09368 15.8297 -0.09409 19.8626 1.81444C19.8792 1.61684 19.9068 1.411 19.9473 1.19573C16.4106 -1.5013 6.01495 2.83707 3.40727 8.5818L2.14068 11.4915C1.64449 12.4949 1.26004 13.4805 0.977674 14.4422C0.162493 17.212 0.189612 19.7898 0.8188 22.0728C0.419826 20.0385 0.498286 17.7964 1.21007 15.412Z" fill="white"/>
</g>
<path d="M6.96235 26.9957C6.95139 26.8058 6.88785 26.6256 6.81661 26.4492C6.73487 26.2467 6.47225 25.9278 6.56028 25.7284C6.64892 25.5278 6.9229 25.3558 7.06545 25.1916C7.23974 24.9908 7.35911 24.7623 7.51466 24.5493C7.60486 24.4258 7.53134 24.2445 7.41566 24.1712C7.1245 23.9868 6.91008 23.763 6.72688 23.4714C6.72688 23.5608 6.72688 23.6503 6.72688 23.7397C6.95917 23.37 7.2698 23.0985 7.46852 22.6973C7.50142 22.6309 7.42851 22.5325 7.35623 22.5849C7.02525 22.8248 6.71792 23.1819 6.36372 23.376C6.24052 23.4436 6.19419 23.6202 6.2685 23.7397C6.49682 24.1067 6.78538 24.3988 7.13712 24.6484C7.13712 24.4893 7.13712 24.3303 7.13712 24.1712C6.63325 24.5455 5.80089 24.9968 5.71319 25.6953C5.64021 26.2766 6.22895 26.9852 6.77225 27.1407C6.86185 27.1664 6.968 27.0936 6.96235 26.9957Z" fill="#EF6A20"/>
<path d="M12.0928 15.2676C12.1876 14.9728 12.0459 14.6441 12.0621 14.3381C11.942 14.4298 11.8219 14.5214 11.7018 14.613C12.3883 14.7201 13.0883 13.9585 13.4906 13.4748C13.5599 13.3915 13.4936 13.2822 13.3886 13.2994C12.861 13.3858 11.9509 13.578 11.6084 14.038C11.4359 14.2697 11.5196 14.4554 11.6057 14.6996C11.6904 14.9395 11.7547 15.1843 11.9928 15.3083C12.0329 15.3292 12.0789 15.3108 12.0928 15.2676Z" fill="#EF6A20"/>
<path d="M27.5412 8.33638C27.1639 8.80755 26.5038 8.36782 26.0103 8.28217C25.8774 8.2591 25.7365 8.24423 25.6133 8.31607C25.5719 8.34026 25.4616 8.50454 25.4282 8.51262C25.5117 8.49247 25.3361 8.42316 25.3068 8.40512C25.0513 8.24794 24.5789 8.04445 24.3166 8.29251C24.0144 8.57829 24.0348 9.33212 24.0507 9.70897C24.0586 9.89743 24.3079 9.97347 24.4086 9.80606C24.5165 9.62677 24.6052 9.44555 24.6831 9.2509C24.7502 9.08308 24.7789 8.87468 24.8682 8.71869C24.7982 8.77256 24.7282 8.82643 24.6583 8.8803C24.8139 8.85875 25.0176 9.06962 25.1487 9.13442C25.2767 9.19766 25.4077 9.23565 25.5523 9.22091C25.6808 9.20781 25.8232 9.15826 25.9103 9.05801C26.0264 8.92432 25.9145 9.00857 25.9094 8.9589C25.8011 8.95403 25.7952 8.9597 25.8917 8.97592C25.9598 8.99138 26.0278 9.00686 26.0959 9.02233C26.4358 9.09958 26.8466 9.25031 27.1973 9.17588C27.5102 9.1095 27.7131 8.85329 27.8923 8.60762C28.0405 8.40429 27.7001 8.13797 27.5412 8.33638Z" fill="#EF6A20"/>
<path d="M31.9427 18.4282L16.9672 31.7082C8.5169 33.9784 -2.37494 25.8321 0.977783 14.4404C0.130662 22.6084 5.12247 29.5446 15.4965 28.8358L24.2687 24.8443L30.3036 15.7423C30.8266 13.8234 31.1201 11.8807 31.1969 9.91553L31.7683 10.6437C32.2005 11.1943 32.4821 11.8493 32.5812 12.5424C32.8434 14.3755 32.5201 16.3675 31.9427 18.4282Z" fill="#EF6A20"/>
<path d="M1.91016 21.7094C2.86512 23.1411 3.856 24.5147 5.14353 25.6479C9.01753 29.0782 14.8264 29.4244 19.5063 27.5736C23.4887 26.0553 26.835 23.0039 28.7803 19.2109C29.7733 17.3096 30.3639 15.2316 30.7497 13.128C30.8427 12.7118 30.9257 12.2736 31.0415 11.8613C31.0689 12.2974 31.0686 12.735 31.0275 13.1685C30.9145 14.4721 30.5742 15.7471 30.1658 16.9872C27.462 25.4565 18.0968 31.2776 9.37478 28.6184C6.07029 27.5743 2.93438 25.1228 1.91016 21.7094Z" fill="#650000"/>
<path d="M14.0259 32.4652C12.5329 32.4652 11.0032 32.1942 9.49411 31.6552C6.96513 30.7519 4.73781 29.1865 3.05293 27.1282C-0.529841 22.7513 -0.980937 16.9944 1.8147 11.3326L3.0777 8.43119C4.85138 4.52359 9.92609 1.43598 14.0235 0.402825C16.695 -0.270878 18.8832 -0.0952234 20.1849 0.897404C20.2971 0.982942 20.3514 1.12457 20.3253 1.26332C20.0518 2.71458 20.3511 3.80794 21.1908 4.42523C22.1439 5.12583 23.7042 5.10448 25.0735 4.37166C25.1781 4.31562 25.3032 4.31296 25.4102 4.36434C25.5172 4.41577 25.5933 4.51515 25.6152 4.63192C25.7899 5.56525 26.2563 7.22681 27.4165 7.86867C28.0508 8.2196 28.8297 8.21665 29.7315 7.86019C29.8847 7.79958 30.0595 7.84698 30.1612 7.97672L32.0733 10.4136C32.5469 11.0172 32.8542 11.7351 32.9619 12.4899C33.2021 14.1719 32.996 16.0908 32.3131 18.5291C32.2938 18.5981 32.255 18.6601 32.2014 18.7076L17.226 31.9876C17.1828 32.0259 17.1313 32.0536 17.0756 32.0686C16.0902 32.3334 15.0669 32.4652 14.0259 32.4652ZM16.9617 0.749637C16.1355 0.749637 15.2046 0.874353 14.2054 1.12629C10.2809 2.11586 5.4322 5.04702 3.75833 8.73461L2.49409 11.639C2.49171 11.6445 2.48912 11.65 2.48647 11.6554C-0.178151 17.0456 0.238349 22.5129 3.62917 26.6553C6.86974 30.6141 12.2727 32.5442 16.7984 31.3703L31.6251 18.2221C32.2556 15.9378 32.446 14.1474 32.2244 12.5955C32.1352 11.9703 31.8803 11.3752 31.4875 10.8745L29.7424 8.6505C28.7308 8.99181 27.8282 8.94882 27.0563 8.52173C26.0915 7.98801 25.3647 6.83292 24.9836 5.24278C23.4621 5.90133 21.8415 5.82912 20.7499 5.02666C19.7283 4.27563 19.3073 2.98111 19.5524 1.36445C18.9148 0.956324 18.0249 0.749637 16.9617 0.749637Z" fill="#650000"/>
<path d="M6.88481 15.7398C8.1028 15.3362 9.05673 15.7548 9.79048 16.8589C9.92952 18.1814 8.76654 19.0562 7.22283 19.3429C7.01092 19.3822 6.79273 19.3049 6.6601 19.1348C6.34714 18.7335 6.12569 18.2722 5.96004 17.7743C5.81374 17.3346 5.88775 16.8487 6.16975 16.4812C6.38869 16.1959 6.62654 15.9478 6.88481 15.7398Z" fill="#77223C"/>
<g opacity="0.4">
<path d="M6.24425 17.0781C6.46316 16.7928 6.70103 16.5447 6.95929 16.3366C8.13238 15.948 9.06041 16.3222 9.78281 17.3367C9.80474 17.1847 9.80796 17.0253 9.79047 16.8589C9.05671 15.7548 8.10279 15.3362 6.88479 15.7398C6.62653 15.9478 6.38866 16.1959 6.16975 16.4812C5.88775 16.8487 5.81374 17.3346 5.96004 17.7743C5.9623 17.7811 5.96483 17.7877 5.96711 17.7945C5.98993 17.5375 6.08287 17.2884 6.24425 17.0781Z" fill="white"/>
</g>
<path d="M7.16818 19.6515C6.9007 19.6515 6.64747 19.5315 6.48137 19.3184C6.16968 18.9188 5.92507 18.4445 5.73347 17.8686C5.55391 17.329 5.64967 16.7424 5.9896 16.2994C6.22464 15.993 6.48189 15.7265 6.75418 15.5072C6.78193 15.4848 6.81351 15.4676 6.84734 15.4564C8.16607 15.0194 9.25873 15.4357 10.0947 16.6935C10.1214 16.7336 10.138 16.7796 10.143 16.8276C10.2884 18.2111 9.21182 19.2874 7.33329 19.6362C7.27811 19.6465 7.22286 19.6515 7.16818 19.6515ZM7.08588 16.0065C6.86578 16.1896 6.65615 16.4103 6.46221 16.663C6.24314 16.9486 6.18209 17.3287 6.29894 17.68C6.4687 18.1902 6.682 18.606 6.95111 18.9511C7.01379 19.0315 7.1186 19.0691 7.22461 19.0494C8.41159 18.829 9.63334 18.1656 9.55633 16.9619C8.89678 16.0067 8.08752 15.6938 7.08588 16.0065Z" fill="#650000"/>
<path d="M12.209 4.77667C11.4303 5.49146 10.9898 6.43093 10.8407 7.50095C10.7975 7.81077 10.9182 8.11777 11.1589 8.31718C12.8737 9.73789 15.0826 9.74069 15.6757 8.34367C15.7607 8.14328 15.7307 7.91223 15.6074 7.73292C15.1434 7.05849 14.7651 6.36364 14.5161 5.63804C14.399 5.29712 14.1427 5.02167 13.8066 4.89259C13.2498 4.67877 12.7125 4.60586 12.209 4.77667Z" fill="#77223C"/>
<g opacity="0.4">
<path d="M12.358 5.44813C12.8614 5.27732 13.3987 5.35021 13.9555 5.56405C14.2917 5.69313 14.548 5.96856 14.665 6.3095C14.9018 6.99931 15.2564 7.66109 15.6893 8.3042C15.7551 8.11338 15.7227 7.90067 15.6074 7.73293C15.1434 7.05849 14.7651 6.36364 14.516 5.63804C14.399 5.29713 14.1427 5.02168 13.8065 4.8926C13.2497 4.67876 12.7124 4.60586 12.209 4.77668C11.4303 5.49147 10.9898 6.43094 10.8406 7.50096C10.8088 7.72915 10.8665 7.95546 10.9949 8.13873C11.1486 7.08278 11.5875 6.15536 12.358 5.44813Z" fill="white"/>
</g>
<path d="M13.8232 9.68588C12.8804 9.68588 11.8315 9.27935 10.9468 8.54639C10.6241 8.279 10.4658 7.87252 10.5234 7.45895C10.689 6.27125 11.1809 5.29452 11.9856 4.55595C12.0161 4.52792 12.0521 4.5066 12.0913 4.49327C12.6228 4.31288 13.2115 4.3522 13.8912 4.61321C14.3058 4.77238 14.6282 5.11027 14.7758 5.54022C15.0013 6.1972 15.3464 6.85881 15.8307 7.56286C16.0157 7.83171 16.052 8.16698 15.9278 8.45961C15.6829 9.03668 15.1825 9.44357 14.5188 9.60539C14.2968 9.65951 14.0635 9.68588 13.8232 9.68588ZM12.3409 5.04016C11.6691 5.67743 11.2563 6.51858 11.1137 7.54143C11.0849 7.74836 11.1645 7.9521 11.3267 8.08647C12.2801 8.87636 13.4779 9.24482 14.3778 9.02546C14.7147 8.94332 15.162 8.73796 15.3793 8.22616C15.4226 8.12418 15.4075 7.99974 15.3399 7.90147C14.8244 7.15211 14.4555 6.44321 14.2122 5.73425C14.122 5.47177 13.9273 5.26628 13.6778 5.17047C13.1599 4.97162 12.7217 4.92875 12.3409 5.04016Z" fill="#650000"/>
<path d="M19.0878 11.8648C19.0229 11.0809 18.8242 10.2592 20.8759 10.0742C22.217 10.5965 21.4841 12.8722 19.0878 11.8648Z" fill="#77223C"/>
<g opacity="0.4">
<path d="M21.0994 10.5965C21.2836 10.6682 21.4284 10.7731 21.5354 10.898C21.5004 10.5556 21.2847 10.2334 20.8759 10.0742C18.8242 10.2592 19.0229 11.0809 19.0878 11.8648C19.1518 11.8917 19.2145 11.9158 19.2762 11.9382C19.2528 11.3124 19.4398 10.7461 21.0994 10.5965Z" fill="white"/>
</g>
<path d="M20.1684 12.3784C19.836 12.3784 19.4324 12.3046 18.9506 12.102C18.8609 12.0643 18.7997 11.9799 18.7917 11.8828C18.7881 11.8396 18.7841 11.7962 18.7801 11.7529C18.7418 11.3365 18.6983 10.8645 19.0235 10.4736C19.3311 10.1039 19.9008 9.8932 20.8162 9.81068C20.8562 9.80693 20.8966 9.81274 20.9341 9.82737C21.389 10.0045 21.6873 10.3651 21.7526 10.8167C21.8189 11.2752 21.6226 11.744 21.2404 12.0403C21.044 12.1924 20.6959 12.3784 20.1684 12.3784ZM19.2969 11.6777C19.9692 11.9273 20.5554 11.9106 20.9212 11.6273C21.1551 11.446 21.2759 11.1641 21.2365 10.8916C21.2008 10.6452 21.0463 10.45 20.799 10.3369C20.0879 10.4075 19.6255 10.5659 19.4242 10.8079C19.2422 11.0267 19.2649 11.3283 19.2969 11.6777Z" fill="#650000"/>
<path d="M27.1706 11.1927C26.3511 11.0435 25.6169 11.6688 25.457 12.3118C25.8903 13.2382 26.5178 13.6814 27.3941 13.5055C28.5862 12.9833 29.2045 11.7064 27.1706 11.1927Z" fill="#77223C"/>
<g opacity="0.4">
<path d="M27.1706 11.7149C27.9313 11.9071 28.3208 12.2059 28.4483 12.5322C28.6262 12.025 28.3287 11.4852 27.1706 11.1927C26.3511 11.0435 25.617 11.6688 25.457 12.3118C25.4939 12.3906 25.5327 12.4646 25.5724 12.5364C25.8488 12.0143 26.4793 11.5891 27.1706 11.7149Z" fill="white"/>
</g>
<path d="M27.0242 13.8024C26.2581 13.8024 25.6539 13.3389 25.2238 12.4194C25.1984 12.3651 25.1925 12.3037 25.2069 12.2455C25.3999 11.4696 26.2545 10.7572 27.2202 10.9326C27.2259 10.9336 27.2317 10.9349 27.2373 10.9363C28.4332 11.2383 28.7237 11.7804 28.757 12.182C28.8052 12.7647 28.3007 13.3914 27.5016 13.7415C27.4845 13.749 27.4666 13.7547 27.4483 13.7583C27.3019 13.7878 27.1604 13.8024 27.0242 13.8024ZM25.7385 12.2857C26.1301 13.0705 26.6347 13.3784 27.3184 13.2516C27.8807 12.9975 28.2657 12.5689 28.2372 12.2251C28.2106 11.9035 27.8031 11.6194 27.1186 11.445C26.4904 11.3352 25.9114 11.7856 25.7385 12.2857Z" fill="#650000"/>
<path d="M14.7444 17.3863C16.011 14.9243 18.3951 15.6704 19.8107 17.9086C21.2263 21.9373 12.4347 20.669 14.7444 17.3863Z" fill="#77223C"/>
<g opacity="0.4">
<path d="M14.8926 18.0578C16.159 15.596 18.5428 16.3417 19.9585 18.5793C19.9426 18.3743 19.8952 18.1513 19.8099 17.9086C18.3943 15.6704 16.0101 14.9243 14.7436 17.3863C14.2912 18.0293 14.2659 18.5946 14.5053 19.0583C14.5202 18.7518 14.64 18.4168 14.8926 18.0578Z" fill="white"/>
</g>
<path d="M17.5828 20.7235C16.4418 20.7236 15.2211 20.3292 14.5691 19.6295C14.1989 19.2321 13.7009 18.3935 14.5084 17.2306C15.1998 15.8999 16.1193 15.5853 16.7703 15.5563C17.9434 15.5037 19.1809 16.3234 20.082 17.748C20.094 17.7671 20.1039 17.7874 20.1113 17.8087C20.6267 19.2752 19.8797 19.9939 19.3885 20.2918C18.9039 20.5857 18.2572 20.7235 17.5828 20.7235ZM16.8739 16.1509C16.8481 16.1509 16.8224 16.1515 16.7968 16.1526C16.0848 16.1843 15.4735 16.6579 15.0288 17.5222C15.0225 17.5344 15.0154 17.5461 15.0075 17.5574C14.5639 18.1879 14.563 18.7481 15.0049 19.2223C15.8479 20.1271 18.0187 20.4248 19.0798 19.7812C19.6698 19.4234 19.8312 18.8373 19.5601 18.0385C18.8092 16.8658 17.7893 16.1509 16.8739 16.1509Z" fill="#650000"/>
<path d="M9.09375 25.4408C9.68399 24.4951 10.7054 23.8482 11.6148 24.4963C12.1646 24.8882 12.1694 25.7227 11.6262 26.1238C10.8604 26.6892 9.73929 26.7137 9.09375 25.4408Z" fill="#77223C"/>
<g opacity="0.4">
<path d="M11.6148 24.944C11.825 25.0937 11.9548 25.3083 12.0055 25.5385C12.0896 25.161 11.9592 24.7418 11.6148 24.4963C10.7054 23.8482 9.68399 24.4951 9.09375 25.4408C9.13784 25.5277 9.18433 25.6081 9.23259 25.6831C9.83552 24.854 10.773 24.344 11.6148 24.944Z" fill="white"/>
</g>
<path d="M10.5329 26.7563C10.4009 26.7563 10.2704 26.7415 10.1431 26.7113C9.76232 26.6209 9.22447 26.3478 8.82514 25.5605C8.78375 25.4788 8.78805 25.3814 8.83649 25.3038C9.27519 24.6009 9.87638 24.128 10.4859 24.0063C10.922 23.9191 11.3521 24.0156 11.7299 24.2849C12.0601 24.5203 12.2515 24.8917 12.2549 25.3039C12.2585 25.7174 12.0725 26.0934 11.7448 26.3352C11.3715 26.6109 10.9458 26.7563 10.5329 26.7563ZM9.36129 25.4548C9.5982 25.8611 9.90795 26.1187 10.2634 26.2031C10.6393 26.2924 11.0663 26.1873 11.4353 25.915C11.6269 25.7735 11.7355 25.5524 11.7334 25.3082C11.7314 25.0655 11.6199 24.8476 11.4275 24.7105C11.1659 24.524 10.8834 24.4591 10.5879 24.5185C10.1603 24.6038 9.70945 24.95 9.36129 25.4548Z" fill="#650000"/>
<path d="M1.59064 11.9714C1.57303 11.4828 1.49452 10.9926 1.35452 10.5009C1.31587 10.3652 1.33832 10.2187 1.41425 10.0998C1.87232 9.3824 2.41925 8.83017 3.15006 8.6197C3.25045 8.59081 3.35645 8.58532 3.45947 8.6025C4.46898 8.77092 5.19228 9.45147 5.74765 10.4325C5.92547 10.7466 5.92229 11.1291 5.73708 11.4389C4.99981 12.6719 3.38334 13.163 2.04352 12.6176C1.77889 12.5098 1.60093 12.2573 1.59064 11.9714Z" fill="#77223C"/>
<g opacity="0.4">
<path d="M1.56327 10.7713C2.02133 10.0539 2.56827 9.50161 3.29906 9.29116C3.39944 9.26226 3.50545 9.25678 3.60847 9.27396C4.60194 9.4397 5.31784 10.1021 5.86968 11.0581C5.89782 10.8456 5.85723 10.6261 5.74765 10.4325C5.19228 9.45147 4.46896 8.77093 3.45946 8.60251C3.35644 8.58532 3.25044 8.59079 3.15006 8.61971C2.41927 8.83016 1.87233 9.38239 1.41426 10.0998C1.33831 10.2187 1.31587 10.3652 1.35454 10.5009C1.40685 10.6847 1.45057 10.8682 1.48574 11.0516C1.48318 10.9534 1.50952 10.8554 1.56327 10.7713Z" fill="white"/>
<path d="M1.51172 11.207C1.55368 11.4612 1.57954 11.715 1.58866 11.9684C1.59381 12.1115 1.64105 12.2463 1.72012 12.3587C1.68805 11.9757 1.61883 11.5918 1.51172 11.207Z" fill="white"/>
</g>
<path d="M3.17327 13.1404C2.74982 13.1404 2.32048 13.0605 1.909 12.893C1.53563 12.741 1.28502 12.3831 1.27053 11.9812C1.25385 11.5181 1.17819 11.0473 1.04566 10.5817C0.983777 10.3643 1.01849 10.1297 1.14089 9.938C1.69771 9.066 2.3207 8.54063 3.04543 8.33191C3.18686 8.29118 3.33933 8.2826 3.48623 8.30716C4.51097 8.47806 5.32822 9.1248 5.98464 10.2843C6.21476 10.6909 6.20935 11.1916 5.97051 11.5911C5.38184 12.5757 4.29882 13.1404 3.17327 13.1404ZM3.32003 8.89021C3.28258 8.89021 3.2454 8.89534 3.21021 8.90549C2.6229 9.07463 2.12493 9.50491 1.64307 10.2596C1.61256 10.3073 1.60375 10.3651 1.61885 10.4181C1.76456 10.9299 1.84777 11.4485 1.86619 11.9597C1.87224 12.1271 1.97716 12.2765 2.13353 12.3401C3.34856 12.8347 4.80947 12.3712 5.45915 11.2846C5.58795 11.0691 5.59064 10.7986 5.46613 10.5787C4.90407 9.58579 4.22437 9.03537 3.38823 8.8959C3.36562 8.89212 3.34275 8.89021 3.32003 8.89021Z" fill="#650000"/>
<path d="M23.5717 11.4371C23.3641 11.5329 23.2652 11.7883 23.1754 11.9862C23.0829 12.1899 23.0086 12.4001 23.0209 12.6262C23.0233 12.6716 23.0711 12.7035 23.1128 12.679C23.3131 12.5612 23.4588 12.3729 23.5771 12.175C23.6973 11.9737 23.8319 11.768 23.7949 11.528C23.7786 11.422 23.6504 11.4008 23.5717 11.4371Z" fill="#EF6A20"/>
<path d="M17.9539 1.79955C17.829 1.66151 17.6892 1.44798 17.4739 1.44824C17.2142 1.44857 17.1567 1.62233 16.9756 1.7158C16.8826 1.76379 16.733 1.71515 16.6286 1.72985C16.5163 1.74565 16.4545 1.77192 16.3621 1.83086C16.0874 2.00598 15.8246 2.22513 15.5059 2.32935C15.4526 2.34678 15.4497 2.42442 15.5059 2.44064C15.7073 2.49878 15.856 2.55724 16.0714 2.51466C16.2866 2.47213 16.4432 2.31449 16.639 2.24246C16.8571 2.16221 17.0663 2.25241 17.261 2.09088C17.456 1.92917 17.5098 1.78 17.7994 2.00005C17.9195 2.09129 18.0462 1.90159 17.9539 1.79955Z" fill="#EF6A20"/>
<path d="M16.4936 2.91166C16.4834 3.00307 16.5287 3.09317 16.6038 3.14335C16.6997 3.20755 16.8215 3.20335 16.8884 3.09994C16.8597 3.12205 16.831 3.14415 16.8023 3.16624C16.8531 3.15368 16.8994 3.1135 16.9107 3.06114C16.9151 3.04096 16.9136 3.02331 16.9107 3.00313C16.9087 2.98904 16.9154 3.03713 16.9144 3.03082C16.9079 2.98888 16.8977 2.95465 16.8658 2.9251C16.8782 2.97189 16.8906 3.01869 16.9029 3.06547C16.9108 3.01488 16.9087 2.97462 16.8849 2.92891C16.8764 2.91266 16.8649 2.89599 16.8502 2.88441C16.8288 2.86752 16.8677 2.91468 16.8602 2.89798C16.8505 2.87649 16.8341 2.8458 16.8146 2.83629C16.8127 2.83432 16.8108 2.83235 16.8089 2.83039C16.8149 2.83831 16.8209 2.84623 16.827 2.85414C16.8246 2.85077 16.8224 2.84725 16.8205 2.84357C16.8141 2.83161 16.8172 2.83912 16.8298 2.8661C16.8001 2.78525 16.7308 2.73141 16.642 2.74336C16.6061 2.74819 16.569 2.76295 16.5437 2.79048C16.5112 2.82604 16.499 2.86395 16.4936 2.91166Z" fill="#EF6A20"/>
<path d="M3.25538 16.1661C3.13883 16.2169 3.07061 16.3442 3.03418 16.4605C3.0009 16.5667 2.98767 16.7214 3.06467 16.8093C3.09469 16.8436 3.1477 16.8443 3.18528 16.8249C3.27517 16.7784 3.32251 16.6398 3.3559 16.5493C3.39437 16.445 3.4225 16.3367 3.40158 16.2257C3.38846 16.1559 3.30887 16.1428 3.25538 16.1661Z" fill="#EF6A20"/>
<path d="M3.72145 16.932C3.67593 16.9822 3.62983 17.0238 3.62296 17.0957C3.61825 17.1449 3.60732 17.2042 3.63821 17.2465C3.66782 17.2871 3.70539 17.3028 3.75471 17.294C3.80636 17.2847 3.83769 17.236 3.86834 17.1975C3.89746 17.1608 3.90831 17.1281 3.91059 17.0816C3.91175 17.0581 3.9117 17.0346 3.91224 17.0111C3.91444 16.9167 3.78674 16.86 3.72145 16.932Z" fill="#EF6A20"/>
<path d="M4.69717 16.1048C4.6872 16.1065 4.67735 16.1085 4.66759 16.1112C4.68357 16.1132 4.69953 16.1153 4.71551 16.1174C4.64692 16.0732 4.54773 16.1455 4.51517 16.2043C4.47114 16.2838 4.45098 16.3858 4.5311 16.4471C4.52051 16.4365 4.50991 16.4259 4.49932 16.4152C4.50785 16.427 4.51665 16.4384 4.52575 16.4497C4.54909 16.4787 4.59415 16.471 4.61856 16.4497C4.62495 16.4439 4.63158 16.4384 4.63847 16.4332C4.62544 16.4408 4.61241 16.4484 4.59937 16.456C4.66611 16.4379 4.68718 16.3679 4.71531 16.3119C4.73859 16.2655 4.76607 16.1888 4.73784 16.1398C4.73992 16.1558 4.74203 16.1718 4.74411 16.1877C4.74621 16.1832 4.74833 16.1787 4.75043 16.1742C4.76859 16.1358 4.73885 16.097 4.69717 16.1048Z" fill="#EF6A20"/>
<path d="M16.043 26.2219C14.9999 23.9091 16.551 22.0531 18.5761 22.1932C18.6926 19.7764 20.2525 18.4255 22.4131 19.0224C22.4131 17.3064 24.5099 16.1826 26.1384 17.008C27.508 15.2367 30.2361 14.4714 31.9497 16.3365C33.4765 15.1458 35.6004 15.5159 36.718 17.3064C38.7088 16.441 40.9648 17.2318 41.4863 19.6939C43.0813 19.9079 44.3175 21.1114 44.1685 23.1258C46.0311 23.7972 46.7017 26.0354 45.5841 27.5276C46.7762 29.0197 46.6924 30.9346 45.1371 32.1532C45.5096 34.1676 45.0379 36.3858 43.2744 36.7042C43.2744 38.4948 41.7952 39.8154 40.1452 39.0916C39.7727 41.1806 37.632 42.6422 35.8985 41.3298C35.4515 43.4188 31.8819 44.4578 30.4596 42.3743C28.597 44.0903 25.9728 44.1733 24.5738 41.7775C22.3386 42.6728 20.7312 41.7518 19.9545 39.1662C17.9429 39.1662 16.3837 38.0559 17.1233 35.6597C15.2607 34.466 14.8891 32.5906 15.9312 31.1833C14.6646 29.7658 14.8198 27.3627 16.043 26.2219Z" fill="#FFB774"/>
<path d="M45.5841 27.5318C46.7016 26.0397 46.0311 23.8015 44.1685 23.13C44.2858 21.5447 43.5449 20.4621 42.4466 19.9683C42.446 19.9778 42.4459 19.987 42.4453 19.9965C42.6667 20.2408 43.1852 20.8785 43.3489 21.8617C43.5239 22.9129 43.1887 23.7307 43.0509 24.0253C43.1834 24.0616 43.9891 24.2957 44.243 24.9952C44.392 25.4057 44.2826 25.7888 44.1685 26.1889C43.9977 26.7874 43.6996 27.2126 43.4979 27.4572C43.6196 27.5587 43.7956 27.7284 43.945 27.9794C44.0228 28.1103 44.4109 28.7625 44.1685 29.5462C43.9399 30.2853 43.3154 30.6082 43.1999 30.6653C43.8455 31.6028 43.7716 32.7728 43.1254 33.4257C42.514 34.0435 41.6237 33.9626 41.4863 33.948C41.6303 34.7951 41.3183 35.6523 40.6667 36.1862C39.7698 36.9212 38.694 36.6631 38.5806 36.6338C38.5674 36.7102 38.3184 38.0094 37.0905 38.499C36.049 38.9143 35.127 38.4184 35.0044 38.3498C34.9705 38.4685 34.5572 39.8287 33.1792 40.2875C32.1577 40.6276 31.0114 40.3372 30.2361 39.5435C29.4947 40.3454 28.3859 40.6857 27.3518 40.4234C25.946 40.0669 25.4081 38.782 25.3547 38.6482C25.1966 38.7353 24.3415 39.1862 23.3139 38.869C22.0545 38.4803 21.6335 37.2768 21.5936 37.156C20.7211 37.264 19.8767 36.8858 19.4329 36.1862C18.9269 35.3884 19.1689 34.5307 19.2094 34.3956C18.9019 34.3488 18.1699 34.1906 17.6448 33.5749C16.9026 32.7046 16.8771 31.2758 17.6448 30.0684C17.5892 30.0372 16.8101 29.582 16.7508 28.6509C16.6932 27.7485 17.3632 27.2043 17.4213 27.1587C17.2253 26.9447 16.4083 26.0044 16.4527 24.6221C16.4788 23.8102 16.7905 23.2059 16.9743 22.9062C17.0751 22.7379 17.1759 22.5697 17.2767 22.4015C15.974 22.9393 15.2406 24.447 16.043 26.2261C14.8198 27.3669 14.6646 29.77 15.9312 31.1875C14.8891 32.5948 15.2607 34.4702 17.1233 35.6639C16.3837 38.06 17.9429 39.1704 19.9545 39.1704C20.7312 41.7559 22.3386 42.6769 24.5738 41.7817C25.9728 44.1774 28.597 44.0945 30.4597 42.3785C31.882 44.462 35.4515 43.423 35.8985 41.334C37.632 42.6463 39.7727 41.1848 40.1453 39.0958C41.7952 39.8196 43.2745 38.499 43.2745 36.7084C45.0379 36.39 45.5096 34.1717 45.1371 32.1574C46.6923 30.9388 46.7761 29.024 45.5841 27.5318Z" fill="#E27E5A"/>
<g opacity="0.6">
<path d="M18.849 22.2267C19.201 20.6182 20.3127 19.6785 21.8232 19.7851C22.2133 19.8126 22.5654 19.5761 22.7006 19.2087C23.1067 18.1045 24.4288 17.4203 25.6724 17.6823C26.0746 17.767 26.4943 17.6413 26.7948 17.3603C28.0989 16.1408 30.0994 15.6714 31.5995 16.7713C31.9223 17.008 32.3488 17.033 32.7088 16.858C33.9736 16.243 35.4713 16.5338 36.4809 17.6673C36.7373 17.9552 37.135 18.0809 37.5081 17.985C39.1728 17.5571 40.876 18.2504 41.5056 20.073C41.6098 20.3745 41.8559 20.6081 42.1622 20.6959C43.1146 20.9688 43.8771 21.6312 44.1892 22.6373C44.1198 20.9171 42.9605 19.8897 41.499 19.6936C40.9774 17.2316 38.7214 16.4407 36.7307 17.3062C35.6131 15.5156 33.4892 15.1456 31.9624 16.3363C30.2488 14.4711 27.5206 15.2364 26.151 17.0078C24.5225 16.1824 22.4258 17.3062 22.4258 19.0221C20.2651 18.4253 18.7053 19.7761 18.5888 22.1929C16.7086 22.0628 15.2384 23.6539 15.8723 25.7332C15.8425 24.3959 16.7237 23.3896 17.931 23.1405C18.3885 23.0461 18.749 22.6835 18.849 22.2267Z" fill="white"/>
</g>
<path d="M27.5577 44.0008C27.375 44.0008 27.1935 43.9875 27.0139 43.9605C25.9689 43.8034 25.0817 43.2096 24.432 42.2365C23.4102 42.5855 22.4984 42.5718 21.7179 42.1953C20.8201 41.7621 20.1396 40.8683 19.6932 39.5367C18.5165 39.4806 17.5867 39.0611 17.0563 38.3411C16.7148 37.8775 16.3916 37.0729 16.7053 35.8217C15.8024 35.1756 15.2182 34.3279 15.0499 33.4109C14.9112 32.6549 15.0638 31.883 15.4802 31.2084C14.9434 30.4944 14.6592 29.5566 14.6943 28.5892C14.7288 27.6363 15.062 26.7598 15.6172 26.1415C15.1902 25.0313 15.2773 23.9264 15.8669 23.0777C16.3993 22.3113 17.2703 21.8562 18.2453 21.819C18.3774 20.6098 18.8738 19.6422 19.6629 19.0701C20.3399 18.5792 21.1748 18.4094 22.0976 18.57C22.2337 17.8686 22.6801 17.2373 23.3487 16.8258C24.1684 16.3213 25.1754 16.2263 26.0435 16.5569C26.9038 15.5741 28.1541 14.943 29.3713 14.8912C30.3734 14.8493 31.2769 15.1803 32.0038 15.8536C32.7616 15.3612 33.642 15.1761 34.5154 15.3307C35.4496 15.4964 36.2766 16.0331 36.8725 16.8535C37.9419 16.4711 39.0589 16.5183 39.9789 16.9934C40.8729 17.455 41.5142 18.2933 41.8039 19.3706C42.6005 19.5303 43.2947 19.9248 43.7789 20.4975C44.3115 21.1277 44.5811 21.9482 44.5656 22.8833C45.4452 23.2825 46.0977 24.0246 46.3758 24.9549C46.641 25.8418 46.5229 26.7617 46.0549 27.5207C46.6146 28.3156 46.8655 29.2188 46.764 30.0914C46.6651 30.9405 46.248 31.7024 45.5536 32.3072C45.7813 33.771 45.5631 35.1485 44.9576 36.026C44.6258 36.5068 44.1772 36.8407 43.648 37.0037C43.569 37.9655 43.1058 38.8025 42.3753 39.2807C41.7896 39.6641 41.1101 39.7673 40.4256 39.5841C40.099 40.6978 39.3039 41.6266 38.3162 42.0141C37.5718 42.3061 36.8057 42.2645 36.1147 41.9034C35.6985 42.8364 34.7121 43.5754 33.5103 43.8122C32.2791 44.0549 31.1545 43.7206 30.4215 42.9138C29.5414 43.62 28.5345 44.0008 27.5577 44.0008ZM24.5867 41.4083C24.7158 41.4083 24.8399 41.4757 24.9085 41.5931C25.4514 42.5229 26.2178 43.0864 27.1245 43.2227C28.1526 43.3773 29.2809 42.9693 30.2205 42.1037C30.3001 42.0304 30.4079 41.9954 30.515 42.0076C30.6224 42.0199 30.7192 42.0783 30.7802 42.1677C31.316 42.9525 32.2827 43.2935 33.3665 43.0802C34.4845 42.8599 35.3609 42.1266 35.5473 41.2555C35.574 41.1309 35.6624 41.0285 35.7817 40.984C35.901 40.9398 36.0346 40.9592 36.1362 41.0361C36.8782 41.5978 37.5834 41.5002 38.0444 41.3194C38.919 40.9763 39.6048 40.0777 39.7916 39.03C39.8117 38.9174 39.8821 38.8203 39.9828 38.7664C40.0835 38.7125 40.2033 38.7079 40.3078 38.7538C40.891 39.0098 41.4805 38.9751 41.9677 38.6562C42.552 38.2738 42.915 37.5273 42.915 36.7081C42.915 36.5276 43.044 36.373 43.2215 36.341C43.6863 36.257 44.0642 36.0084 44.3447 35.6019C44.8621 34.8521 45.0304 33.5581 44.7838 32.225C44.7586 32.0884 44.8113 31.9489 44.9206 31.8633C45.5591 31.363 45.9406 30.7204 46.0239 30.005C46.1119 29.2496 45.857 28.4538 45.3063 27.7645C45.2002 27.6317 45.1972 27.4438 45.2992 27.3076C45.7544 26.6998 45.8867 25.9202 45.6621 25.1689C45.4259 24.3789 44.8403 23.7635 44.0554 23.4806C43.8981 23.4238 43.7977 23.269 43.8101 23.1021C43.9569 21.1179 42.6872 20.2335 41.4499 20.0675C41.2938 20.0465 41.1677 19.9295 41.135 19.7751C40.9257 18.7869 40.4078 18.0543 39.6375 17.6565C38.8337 17.2415 37.8285 17.24 36.8795 17.6525C36.7104 17.7259 36.513 17.6646 36.4152 17.508C35.9252 16.7229 35.2044 16.2106 34.3855 16.0654C33.6166 15.929 32.8374 16.1312 32.1917 16.6347C32.0387 16.7541 31.8199 16.7359 31.6887 16.593C31.0792 15.9296 30.2885 15.5995 29.4029 15.6366C28.3079 15.6832 27.1748 16.2977 26.4461 17.2402C26.3367 17.3816 26.1427 17.4255 25.9832 17.3447C25.2881 16.9924 24.4282 17.0371 23.7388 17.4614C23.1414 17.8291 22.7988 18.3995 22.7988 19.0263C22.7988 19.1427 22.7444 19.2525 22.6519 19.323C22.5594 19.3936 22.4393 19.4169 22.3272 19.3859C21.4605 19.1466 20.6903 19.2464 20.0998 19.6744C19.4209 20.1667 19.0166 21.069 18.9613 22.2151C18.9565 22.3152 18.9116 22.4092 18.8367 22.4759C18.7619 22.5425 18.6635 22.5755 18.5635 22.5693C17.706 22.5092 16.9263 22.8592 16.4785 23.5037C16.0002 24.1923 15.9699 25.1285 16.3956 26.0723C16.4613 26.2181 16.4269 26.3898 16.31 26.4988C15.1731 27.5592 15.1303 29.7167 16.2219 30.9385C16.3398 31.0704 16.3489 31.2671 16.2435 31.4093C15.8223 31.9782 15.663 32.6237 15.7827 33.2762C15.9271 34.0632 16.4792 34.7995 17.3372 35.3494C17.4783 35.4398 17.5418 35.6135 17.4923 35.7738C17.2177 36.6633 17.2728 37.3782 17.6559 37.8983C18.0766 38.4695 18.9192 38.7971 19.9676 38.7971C20.132 38.7971 20.277 38.905 20.3243 39.0627C20.7048 40.3292 21.2825 41.1571 22.0413 41.5233C22.6995 41.8408 23.5094 41.8111 24.4485 41.4351C24.4937 41.4169 24.5405 41.4083 24.5867 41.4083Z" fill="#650000"/>
<path d="M17.347 27.2308C16.5799 27.9918 16.7967 29.4441 17.8091 29.8608C17.9226 29.9116 17.9735 30.0448 17.9229 30.1584C17.7002 30.548 17.5166 30.9618 17.4332 31.3942C17.1386 32.7539 17.9345 33.9652 19.3191 34.172C19.4587 34.1919 19.5447 34.3436 19.4926 34.4739C19.3679 34.8022 19.2799 35.145 19.2991 35.4671C19.3143 35.7895 19.4566 36.0721 19.7068 36.2735C20.2441 36.6953 21.005 36.7965 21.6848 36.8557C21.7941 36.864 21.8791 36.9496 21.8905 37.055C21.9626 37.7554 22.4863 38.3567 23.1442 38.5906C23.8213 38.8442 24.5835 38.7191 25.2126 38.3743C25.3201 38.317 25.4533 38.3562 25.5137 38.4611C25.7495 38.8723 26.0339 39.2562 26.3845 39.5618C27.0682 40.1836 28.0474 40.4428 28.9252 40.1256C29.3571 39.9778 29.7485 39.7119 30.0783 39.3827C30.167 39.2938 30.3122 39.2958 30.3986 39.387C31.0348 40.0745 32.012 40.4294 32.9282 40.1987C33.3779 40.0902 33.7957 39.8549 34.1291 39.5303C34.4641 39.2061 34.713 38.795 34.8678 38.3489C34.9075 38.2345 35.031 38.173 35.1456 38.2082C36.1165 38.5181 37.3956 38.4739 38.0292 37.5759C38.2223 37.2985 38.3274 36.9617 38.3582 36.6119C38.369 36.4886 38.4776 36.3975 38.6007 36.4084C39.7187 36.517 40.8453 36.2093 41.2096 35.0386C41.3175 34.6968 41.3511 34.326 41.3377 33.9548C41.3307 33.8217 41.446 33.7108 41.5783 33.7223C42.2672 33.787 42.9791 33.4241 43.264 32.7855C43.5659 32.1369 43.3869 31.3736 43.0106 30.7814C42.9415 30.6703 42.9836 30.5214 43.1002 30.4626C43.3655 30.3274 43.5975 30.1376 43.7616 29.8999C44.1038 29.42 44.1088 28.7638 43.8416 28.2442C43.7097 27.9798 43.5151 27.7457 43.2827 27.5538C43.1869 27.4747 43.1733 27.3327 43.2523 27.2368C43.4775 27.035 43.6889 26.814 43.8509 26.5533C44.3348 25.8144 44.4442 24.6741 43.4981 24.2466C43.6535 24.279 43.8061 24.3409 43.9426 24.4342C44.9723 25.2046 44.4013 26.8406 43.57 27.5492L43.5646 27.2063C44.1265 27.662 44.5102 28.3693 44.4776 29.1096C44.4632 29.8584 43.9596 30.5445 43.3001 30.863L43.3897 30.5442C43.838 31.2467 44.0425 32.1827 43.6697 32.9736C43.3128 33.7797 42.4034 34.2521 41.5437 34.1686L41.7843 33.9361C41.8111 34.5548 41.7033 35.2189 41.3682 35.7592C41.3044 35.8382 41.2433 35.9498 41.1738 36.0205L41.0624 36.14C41.0436 36.1597 41.0255 36.1802 41.006 36.1991L40.9433 36.2512C40.2879 36.821 39.3822 36.9281 38.5595 36.8541L38.8035 36.6507C38.6328 38.6197 36.6683 39.1758 35.0126 38.6355L35.2904 38.4949C35.1154 39.0001 34.8299 39.4747 34.4401 39.8518C33.1929 41.0763 31.2442 40.9648 30.0741 39.6949L30.3944 39.6992C30.0248 40.0684 29.5773 40.3752 29.0709 40.5488C28.0564 40.9215 26.8717 40.6178 26.0897 39.8983C25.6927 39.5516 25.3803 39.1276 25.1243 38.6811L25.4255 38.7679C24.6954 39.1699 23.7876 39.3117 22.9895 39.0106C22.1796 38.7221 21.5341 37.9738 21.4461 37.1029L21.6517 37.3021C20.5342 37.2286 18.9227 36.883 18.8529 35.4945C18.8296 35.07 18.9387 34.6767 19.0757 34.3123L19.2492 34.6142C17.6168 34.3674 16.6487 32.9186 16.9949 31.3061C17.0904 30.8216 17.286 30.3695 17.5267 29.9527L17.6299 30.271C16.4197 29.7571 16.1982 27.9166 17.347 27.2308Z" fill="#650000"/>
<path d="M20.9791 28.8357C21.3495 28.8357 21.6497 28.6353 21.6497 28.3881C21.6497 28.1408 21.3495 27.9404 20.9791 27.9404C20.6088 27.9404 20.3086 28.1408 20.3086 28.3881C20.3086 28.6353 20.6088 28.8357 20.9791 28.8357Z" fill="#E27E5A"/>
<path d="M23.6159 34.1721C23.9862 34.1721 24.2864 33.9717 24.2864 33.7245C24.2864 33.4773 23.9862 33.2769 23.6159 33.2769C23.2455 33.2769 22.9453 33.4773 22.9453 33.7245C22.9453 33.9717 23.2455 34.1721 23.6159 34.1721Z" fill="#E27E5A"/>
<path d="M31.0446 36.4236C31.3651 36.2379 31.5245 35.914 31.4007 35.7001C31.2768 35.4863 30.9166 35.4634 30.596 35.6491C30.2755 35.8348 30.116 36.1587 30.2399 36.3726C30.3637 36.5864 30.724 36.6093 31.0446 36.4236Z" fill="#E27E5A"/>
<path d="M31.7845 31.6879C32.0751 31.5195 32.2197 31.2258 32.1074 31.0319C31.9951 30.838 31.6684 30.8173 31.3778 30.9857C31.0872 31.154 30.9426 31.4477 31.0549 31.6416C31.1672 31.8355 31.4938 31.8562 31.7845 31.6879Z" fill="#E27E5A"/>
<path d="M30.5559 28.2019C30.8629 28.1728 31.0961 27.9831 31.0767 27.7781C31.0573 27.5731 30.7927 27.4305 30.4856 27.4596C30.1786 27.4887 29.9454 27.6784 29.9648 27.8833C29.9842 28.0883 30.2488 28.2309 30.5559 28.2019Z" fill="#E27E5A"/>
<path d="M26.4547 28.2925C26.7753 28.1068 26.9347 27.7829 26.8109 27.569C26.687 27.3552 26.3267 27.3323 26.0062 27.518C25.6856 27.7037 25.5262 28.0276 25.65 28.2415C25.7739 28.4553 26.1342 28.4782 26.4547 28.2925Z" fill="#E27E5A"/>
<path d="M24.2594 22.9951C24.5799 22.8094 24.7394 22.4855 24.6155 22.2717C24.4917 22.0578 24.1314 22.035 23.8109 22.2207C23.4903 22.4064 23.3309 22.7302 23.4547 22.9441C23.5786 23.158 23.9388 23.1808 24.2594 22.9951Z" fill="#E27E5A"/>
<path d="M29.8144 24.6354C30.0742 24.4849 30.2034 24.2224 30.103 24.0491C30.0026 23.8758 29.7107 23.8573 29.4509 24.0078C29.1911 24.1583 29.0618 24.4208 29.1622 24.5941C29.2626 24.7674 29.5546 24.7859 29.8144 24.6354Z" fill="#E27E5A"/>
<path d="M35.0409 27.0251C35.3007 26.8746 35.43 26.6121 35.3296 26.4387C35.2292 26.2654 34.9372 26.2469 34.6774 26.3974C34.4176 26.5479 34.2884 26.8104 34.3888 26.9837C34.4892 27.1571 34.7811 27.1756 35.0409 27.0251Z" fill="#E27E5A"/>
<path d="M36.8612 33.035C37.155 32.8648 37.3011 32.5679 37.1876 32.3719C37.0741 32.1758 36.7438 32.1549 36.45 32.3251C36.1562 32.4953 36.01 32.7922 36.1235 32.9883C36.2371 33.1843 36.5673 33.2052 36.8612 33.035Z" fill="#E27E5A"/>
<path d="M39.3808 26.8498C39.5702 26.7408 39.5911 26.4219 39.4275 26.1376C39.2639 25.8533 38.9777 25.7112 38.7883 25.8202C38.5989 25.9292 38.5779 26.2481 38.7416 26.5324C38.9052 26.8167 39.1914 26.9588 39.3808 26.8498Z" fill="#E27E5A"/>
<path d="M29.5181 20.4408C29.8878 20.4194 30.1759 20.2019 30.1616 19.9551C30.1473 19.7083 29.836 19.5257 29.4663 19.5471C29.0966 19.5686 28.8085 19.786 28.8228 20.0328C28.8371 20.2796 29.1484 20.4623 29.5181 20.4408Z" fill="#E27E5A"/>
<path d="M35.9439 21.7136C36.3136 21.6921 36.6017 21.4747 36.5874 21.2279C36.5731 20.9811 36.2618 20.7984 35.8921 20.8198C35.5224 20.8413 35.2343 21.0587 35.2486 21.3055C35.2629 21.5523 35.5742 21.735 35.9439 21.7136Z" fill="#E27E5A"/>
<path d="M28.9716 1.49049C27.3765 2.65213 28.4874 4.64251 30.1718 4.90468C30.2646 4.91913 30.3598 4.91519 30.4507 4.89157C31.5521 4.60542 32.1078 3.47224 31.5792 2.53499C30.8254 1.47945 30.0084 0.811364 28.9716 1.49049Z" fill="#FFA840"/>
<path d="M28.747 1.5166C28.4292 1.91448 28.5526 2.5225 28.8534 2.9334C29.3389 3.5965 30.2496 3.91386 31.0413 3.69582C31.1315 3.67096 31.2207 3.63959 31.3016 3.59241C31.5367 3.45533 31.6772 3.20162 31.7842 2.95113C31.9194 3.58256 31.5683 4.23234 31.0873 4.66253C30.9787 4.7597 30.8599 4.85086 30.7212 4.89541C30.5217 4.9595 30.3044 4.92032 30.1025 4.8643C29.4247 4.6762 28.7718 4.26905 28.4636 3.63594C28.1586 3.00964 28.2512 2.20964 28.6911 1.66976" fill="#EF6A20"/>
<path d="M30.2802 5.17564C30.2308 5.17564 30.181 5.17174 30.1311 5.16399C29.0962 5.00288 28.2163 4.24001 27.9914 3.30883C27.8052 2.53781 28.1063 1.79851 28.8175 1.28058C28.821 1.27804 28.8245 1.27562 28.8281 1.27322C30.3059 0.305323 31.3846 1.81573 31.7907 2.38436C31.7961 2.39192 31.801 2.39975 31.8056 2.40786C32.0823 2.89852 32.1158 3.4751 31.8976 3.98981C31.6565 4.55877 31.1527 4.98006 30.5155 5.14558C30.4385 5.16557 30.3598 5.17564 30.2802 5.17564ZM29.119 1.70675C28.5831 2.09937 28.3627 2.62449 28.4983 3.18608C28.6721 3.90569 29.3925 4.52051 30.2112 4.64793C30.2697 4.65703 30.3297 4.65433 30.3845 4.64009C30.8637 4.5156 31.2402 4.2042 31.4176 3.78575C31.5725 3.42025 31.5513 3.02685 31.3581 2.67639C30.5162 1.50174 29.8666 1.22056 29.119 1.70675Z" fill="#650000"/>
<path d="M28.6043 1.76924C28.2096 2.31609 28.6879 2.999 29.1031 3.36871C29.5059 3.7274 30.1646 4.20571 30.6901 3.78248C30.7118 3.765 30.6981 3.72921 30.6743 3.72256C30.4867 3.67019 30.316 3.73546 30.1266 3.70516C29.802 3.65322 29.558 3.45028 29.3176 3.24277C28.8635 2.85092 28.6181 2.44708 28.7655 1.83728C28.79 1.73584 28.6615 1.68995 28.6043 1.76924Z" fill="#650000"/>
<path d="M30.8608 1.82122C30.8626 1.82122 30.8626 1.81836 30.8608 1.81836C30.8589 1.81836 30.8589 1.82122 30.8608 1.82122Z" fill="#EF6A20"/>
<path d="M30.2914 2.11698C30.3069 2.12729 30.3661 2.15003 30.3737 2.16853C30.3832 2.19165 30.3634 2.22524 30.3619 2.25142C30.3578 2.32633 30.39 2.38816 30.4371 2.44421C30.4843 2.50025 30.5445 2.53778 30.5947 2.58891C30.6305 2.6254 30.6651 2.66956 30.7126 2.69077C30.7283 2.69778 30.7417 2.69613 30.7549 2.6853C30.8896 2.57485 30.7469 2.38169 30.6567 2.29753C30.5819 2.22783 30.6219 2.13848 30.5687 2.05508C30.5255 1.98739 30.4484 1.94326 30.3721 1.9252C30.2548 1.89742 30.1924 2.05113 30.2914 2.11698Z" fill="#EF6A20"/>
<path d="M30.4251 2.84114C30.459 2.88948 30.4926 2.93286 30.5354 2.97354C30.5716 3.00793 30.6214 3.04792 30.6697 3.06263C30.692 3.06942 30.7136 3.04704 30.7073 3.02498C30.6934 2.97637 30.6537 2.92566 30.62 2.88887C30.5801 2.84535 30.5372 2.81119 30.4896 2.77653C30.4518 2.74903 30.3986 2.80336 30.4251 2.84114Z" fill="#EF6A20"/>
<path d="M34.7047 4.4831C34.2823 5.0396 33.967 5.71921 33.8648 6.64349C33.7422 7.75153 34.285 8.84436 35.2654 9.37275C36.1493 9.84923 37.229 9.97165 38.4795 9.78516C38.6896 9.75384 38.8811 9.64624 39.0208 9.48615C39.4452 9.00009 39.7428 8.43781 39.9046 7.79395C39.8354 6.35307 39.5487 5.06607 38.6606 4.20438C38.5178 4.06577 38.3306 3.98023 38.1322 3.9655C37.2498 3.90002 36.3915 3.91162 35.5576 4.00095C35.2196 4.03711 34.9104 4.21215 34.7047 4.4831Z" fill="#FFA840"/>
<path d="M34.6019 4.49268C34.4258 4.91028 34.4245 5.37795 34.426 5.83124C34.4265 5.97148 34.427 6.1123 34.4475 6.25104C34.514 6.70089 34.7894 7.09926 35.1327 7.39694C35.476 7.69463 35.8857 7.90364 36.2948 8.10091C36.5884 8.24244 36.8911 8.38151 37.2152 8.41438C37.6482 8.45828 38.084 8.30561 38.4463 8.06434C38.8087 7.82307 39.1066 7.49763 39.3862 7.16375C39.5674 6.94747 39.7494 6.71078 39.7853 6.43079C39.9384 6.74847 39.9554 7.11835 39.8968 7.46618C39.8382 7.814 39.7086 8.14526 39.5779 8.47283C39.4671 8.75075 39.3503 9.03558 39.1427 9.25089C38.8048 9.60143 38.2927 9.70554 37.8139 9.79194C37.6062 9.82942 37.3952 9.86695 37.1851 9.84614C37.044 9.83214 36.907 9.79212 36.7709 9.75227C36.607 9.7043 36.4431 9.65631 36.2792 9.60834C35.6995 9.43863 35.097 9.25626 34.6553 8.84391C34.1865 8.40636 33.9595 7.75351 33.9327 7.11236C33.9059 6.4712 34.0615 5.83596 34.2613 5.22624C34.3449 4.97113 34.449 4.70177 34.6703 4.55011" fill="#EF6A20"/>
<path d="M34.6429 4.72049C34.2878 5.26094 34.1928 6.00646 34.3642 6.63041C34.5443 7.28584 35.1822 7.59558 35.7195 7.9133C36.2844 8.24734 36.8458 8.69906 37.5372 8.58307C38.1948 8.47277 38.7488 7.92853 39.0907 7.3814C39.1228 7.33 39.052 7.28086 39.0098 7.31889C38.5593 7.72464 38.1921 8.21446 37.5532 8.32643C36.936 8.43459 36.3713 7.95208 35.8721 7.65197C35.3755 7.35344 34.8854 7.11574 34.6459 6.55266C34.3869 5.94373 34.6244 5.37047 34.7387 4.76093C34.7495 4.70299 34.6765 4.66927 34.6429 4.72049Z" fill="#650000"/>
<path d="M38.6682 4.4196C38.5745 4.20405 38.2978 3.96892 38.05 4.06109C37.9108 4.11291 37.8545 4.24091 37.7851 4.36236C37.6926 4.52439 37.6537 4.67009 37.446 4.73566C37.3382 4.76967 37.1731 4.73179 37.0617 4.73233C36.8801 4.73323 36.4838 4.66514 36.4606 4.94009C36.4445 5.13008 36.5722 5.07721 36.2887 5.06137C36.1021 5.05095 35.9503 5.06049 35.7874 5.14173C35.7539 5.15843 35.7524 5.21609 35.7874 5.23232C36.002 5.33195 36.4171 5.37067 36.6351 5.27578C36.7208 5.23848 36.7678 5.19586 36.81 5.11376C36.8253 5.08385 36.7907 5.02094 36.8033 5.00297C36.7916 4.95749 36.7951 4.96349 36.8138 5.02094C36.826 5.10093 36.883 5.11627 36.9848 5.06698C37.2824 5.1093 37.7073 5.18184 37.9268 4.92773C37.9997 4.84327 38.1292 4.47331 38.1903 4.45074C38.2454 4.4304 38.5049 4.53055 38.639 4.4915C38.6721 4.48189 38.6808 4.44842 38.6682 4.4196Z" fill="#EF6A20"/>
<path d="M36.9416 5.64842C36.9489 5.77253 37.0659 5.78085 37.1648 5.79563C37.2173 5.80348 37.279 5.81327 37.3322 5.80923C37.3893 5.8049 37.4115 5.76952 37.4507 5.73651C37.4628 5.72635 37.4664 5.70186 37.4568 5.68883C37.4374 5.66239 37.4268 5.63133 37.3996 5.61036C37.3654 5.58389 37.3141 5.58163 37.2726 5.57415C37.1946 5.56009 37.1088 5.55045 37.0311 5.55872C36.9852 5.56359 36.9384 5.59588 36.9416 5.64842Z" fill="#EF6A20"/>
<path d="M37.4218 10.1302C36.5543 10.1302 35.7901 9.95441 35.1405 9.60423C34.0867 9.03626 33.4694 7.83552 33.6043 6.61628C33.7015 5.73783 33.9932 4.98883 34.4958 4.32666C34.7443 3.99932 35.1207 3.78654 35.5286 3.74283C36.3732 3.65244 37.2553 3.64027 38.1502 3.70664C38.4081 3.72576 38.6534 3.83648 38.8408 4.01836C39.6694 4.82235 40.0774 5.98338 40.1639 7.78295C40.1651 7.80864 40.1625 7.83433 40.1563 7.85927C39.9869 8.53321 39.6705 9.13892 39.2159 9.6596C39.0339 9.86803 38.7856 10.0049 38.5166 10.045C38.1356 10.1018 37.7703 10.1302 37.4218 10.1302ZM37.0234 4.18675C36.5343 4.18675 36.0531 4.21188 35.584 4.26216C35.3183 4.2906 35.073 4.42931 34.911 4.64267C34.4609 5.23564 34.2104 5.88103 34.1227 6.67378C34.011 7.68347 34.5193 8.67634 35.3877 9.1444C36.1969 9.58056 37.2238 9.70966 38.4398 9.52841C38.5864 9.50654 38.7226 9.43107 38.8232 9.3158C39.2147 8.86747 39.4897 8.34718 39.641 7.76889C39.5576 6.13441 39.1983 5.09247 38.4779 4.39342C38.378 4.29649 38.2479 4.23756 38.1116 4.22746C37.7459 4.20032 37.3825 4.18675 37.0234 4.18675Z" fill="#650000"/>
</svg>
