<svg width="80" height="80" viewBox="0 0 80 80" fill="none" xmlns="http://www.w3.org/2000/svg">
<path fill-rule="evenodd" clip-rule="evenodd" d="M29.7792 33.434L7.65759 20.874L10.0256 16.7012L32.1504 29.2612C36.1184 31.5108 38.5792 32.3876 40.8448 32.3876C43.1072 32.3876 45.568 31.5108 49.536 29.2612L71.6576 16.7012L74.0256 20.874L51.9072 33.434C47.792 35.77 44.416 37.1876 40.8448 37.1876C37.2736 37.1876 33.8944 35.77 29.7792 33.434Z" fill="url(#paint0_linear_1338_849)"/>
<path fill-rule="evenodd" clip-rule="evenodd" d="M50.0672 13.3025C43.9188 13.1474 37.7675 13.1474 31.6191 13.3025C26.5119 13.4305 22.9408 13.5265 20.1855 14.0065C17.5359 14.4705 15.8848 15.2513 14.528 16.6145C13.1616 17.9873 12.3936 19.6193 11.9456 22.1921C11.4816 24.8801 11.4016 28.3489 11.2928 33.3281C11.2288 36.4513 11.2288 39.5553 11.2928 42.6785C11.3984 47.6577 11.4816 51.1265 11.9456 53.8145C12.3936 56.3873 13.1616 58.0193 14.528 59.3921C15.8848 60.7585 17.5359 61.5361 20.1855 61.9969C22.9408 62.4769 26.5119 62.5729 31.6191 62.7009C33.1071 62.7393 34.5952 62.7681 36.0768 62.7873C36.7133 62.7958 37.3203 63.0568 37.7644 63.5129C38.2085 63.969 38.4532 64.5828 38.4448 65.2193C38.4363 65.8559 38.1753 66.4629 37.7192 66.907C37.2631 67.3511 36.6493 67.5958 36.0128 67.5873C34.5088 67.5681 33.0047 67.5393 31.5007 67.5009L31.3152 67.4977C26.4352 67.3729 22.5088 67.2737 19.36 66.7297C16.064 66.1537 13.3888 65.0529 11.1263 62.7809C8.87355 60.5185 7.77915 57.8785 7.21595 54.6337C6.68155 51.5489 6.59835 47.7153 6.49915 42.9665L6.49595 42.7777C6.42795 39.5941 6.42795 36.4094 6.49595 33.2257V33.0401C6.59835 28.2913 6.68155 24.4577 7.21595 21.3729C7.77915 18.1281 8.87355 15.4881 11.1263 13.2257C13.3888 10.9537 16.0672 9.85294 19.36 9.28014C22.5088 8.73294 26.4319 8.63374 31.3119 8.51214L31.5007 8.50574C37.7503 8.34574 43.9392 8.34574 50.1888 8.50574L50.3744 8.50894C55.2543 8.63374 59.1807 8.73294 62.3264 9.27694C65.6223 9.85294 68.2976 10.9537 70.56 13.2257C72.8128 15.4881 73.9072 18.1281 74.4704 21.3729C75.0048 24.4577 75.088 28.2913 75.1904 33.0401V33.2289L75.2 33.6385C75.2256 34.8161 75.2416 35.4817 75.2448 36.3809C75.2456 36.6961 75.1843 37.0084 75.0645 37.2999C74.9447 37.5914 74.7686 37.8564 74.5463 38.0799C74.3241 38.3033 74.06 38.4808 73.7691 38.6022C73.4782 38.7236 73.1663 38.7865 72.8512 38.7873C72.536 38.7882 72.2237 38.7269 71.9322 38.6071C71.6407 38.4873 71.3757 38.3112 71.1522 38.0889C70.9288 37.8667 70.7513 37.6026 70.6299 37.3117C70.5085 37.0208 70.4456 36.7089 70.4448 36.3937C70.4399 35.3717 70.4228 34.3498 70.3936 33.3281C70.2879 28.3489 70.208 24.8801 69.7408 22.1921C69.2928 19.6193 68.5247 17.9873 67.1584 16.6145C65.8016 15.2513 64.1503 14.4705 61.5039 14.0097C58.7455 13.5297 55.1776 13.4305 50.0672 13.3025Z" fill="url(#paint1_linear_1338_849)"/>
<path fill-rule="evenodd" clip-rule="evenodd" d="M58.4448 45.1872C55.2622 45.1872 52.2099 46.4515 49.9595 48.7019C47.7091 50.9524 46.4448 54.0046 46.4448 57.1872C46.4448 60.3698 47.7091 63.4221 49.9595 65.6725C52.2099 67.9229 55.2622 69.1872 58.4448 69.1872C59.0813 69.1872 59.6918 69.4401 60.1418 69.8902C60.5919 70.3402 60.8448 70.9507 60.8448 71.5872C60.8448 72.2237 60.5919 72.8342 60.1418 73.2843C59.6918 73.7344 59.0813 73.9872 58.4448 73.9872C55.1221 73.9872 51.8739 73.0019 49.1112 71.1559C46.3485 69.3099 44.1952 66.6861 42.9236 63.6163C41.6521 60.5465 41.3194 57.1686 41.9676 53.9097C42.6158 50.6508 44.2159 47.6573 46.5654 45.3078C48.9149 42.9583 51.9084 41.3583 55.1673 40.71C58.4261 40.0618 61.8041 40.3945 64.8739 41.666C67.9437 42.9376 70.5675 45.0909 72.4135 47.8536C74.2595 50.6164 75.2448 53.8645 75.2448 57.1872V58.7872C75.2453 60.2864 74.7778 61.7484 73.9075 62.9692C73.0372 64.1899 71.8075 65.1085 70.39 65.5969C68.9726 66.0852 67.438 66.1189 66.0005 65.6932C64.563 65.2676 63.2942 64.4038 62.3712 63.2224C61.0289 64.0957 59.4338 64.4966 57.8381 64.3616C56.2424 64.2267 54.7373 63.5637 53.5607 62.4774C52.3841 61.3911 51.6032 59.9436 51.3416 58.3638C51.0799 56.7839 51.3524 55.1619 52.1159 53.7543C52.8794 52.3467 54.0904 51.2338 55.5573 50.5916C57.0243 49.9494 58.6635 49.8145 60.2156 50.2084C61.7678 50.6023 63.1444 51.5023 64.1276 52.7663C65.1109 54.0302 65.6448 55.5859 65.6448 57.1872V58.7872C65.6448 59.4237 65.8976 60.0342 66.3477 60.4843C66.7978 60.9344 67.4083 61.1872 68.0448 61.1872C68.6813 61.1872 69.2918 60.9344 69.7418 60.4843C70.1919 60.0342 70.4448 59.4237 70.4448 58.7872V57.1872C70.4448 54.0046 69.1805 50.9524 66.9301 48.7019C64.6796 46.4515 61.6274 45.1872 58.4448 45.1872ZM60.8448 57.1872C60.8448 56.5507 60.5919 55.9402 60.1418 55.4902C59.6918 55.0401 59.0813 54.7872 58.4448 54.7872C57.8083 54.7872 57.1978 55.0401 56.7477 55.4902C56.2976 55.9402 56.0448 56.5507 56.0448 57.1872C56.0448 57.8237 56.2976 58.4342 56.7477 58.8843C57.1978 59.3344 57.8083 59.5872 58.4448 59.5872C59.0813 59.5872 59.6918 59.3344 60.1418 58.8843C60.5919 58.4342 60.8448 57.8237 60.8448 57.1872Z" fill="url(#paint2_linear_1338_849)"/>
<defs>
<linearGradient id="paint0_linear_1338_849" x1="40.8416" y1="16.7012" x2="40.8416" y2="37.1876" gradientUnits="userSpaceOnUse">
<stop stop-color="#C7D7FF"/>
<stop offset="1" stop-color="#3771FD"/>
</linearGradient>
<linearGradient id="paint1_linear_1338_849" x1="40.8449" y1="8.38574" x2="40.8449" y2="67.5876" gradientUnits="userSpaceOnUse">
<stop stop-color="#C7D7FF"/>
<stop offset="1" stop-color="#3771FD"/>
</linearGradient>
<linearGradient id="paint2_linear_1338_849" x1="58.4448" y1="40.3872" x2="58.4448" y2="73.9872" gradientUnits="userSpaceOnUse">
<stop stop-color="#C7D7FF"/>
<stop offset="1" stop-color="#3771FD"/>
</linearGradient>
</defs>
</svg>
