<svg width="80" height="80" viewBox="0 0 80 80" fill="none" xmlns="http://www.w3.org/2000/svg">
<path d="M50.0001 13.1701C64.8121 13.1702 76.8301 25.1777 76.8301 40.0002C76.83 54.2416 65.7444 65.8827 51.7276 66.7639L52.4766 67.5129C53.8471 68.8834 53.8471 71.0965 52.4766 72.467C51.1061 73.8373 48.893 73.8375 47.5225 72.467L40.8526 65.7971C39.8594 64.8037 39.5489 63.2927 40.0977 61.9836C40.6424 60.6848 41.9143 59.8303 43.3301 59.8303H50.0001C60.948 59.8302 69.83 50.9575 69.8301 40.0002C69.8301 29.0522 60.9574 20.1702 50.0001 20.1701H48.3301C46.3979 20.1701 44.8302 18.6023 44.8301 16.6701C44.8301 14.7378 46.3979 13.1701 48.3301 13.1701H50.0001ZM27.5225 7.52265C28.8929 6.15224 31.1061 6.15248 32.4766 7.52265L39.1475 14.2033L39.3253 14.3947C40.1761 15.3841 40.4171 16.7893 39.9024 18.0168C39.3578 19.3156 38.0858 20.1701 36.67 20.1701H30.0001C19.052 20.1701 10.17 29.0428 10.17 40.0002C10.1701 50.9481 19.0427 59.8303 30.0001 59.8303H31.67C33.6023 59.8303 35.17 61.398 35.17 63.3303C35.1698 65.2624 33.6022 66.8303 31.67 66.8303H30.0001C15.1881 66.8303 3.17008 54.8226 3.16998 40.0002C3.16998 25.7583 14.2559 14.1167 28.2725 13.2268L27.5225 12.4768C26.1524 11.1062 26.1522 8.89306 27.5225 7.52265Z" fill="url(#paint0_linear_1672_6861)"/>
<defs>
<linearGradient id="paint0_linear_1672_6861" x1="40.0001" y1="6.49493" x2="40.0001" y2="73.4948" gradientUnits="userSpaceOnUse">
<stop stop-color="#C7D7FF"/>
<stop offset="1" stop-color="#3771FD"/>
</linearGradient>
</defs>
</svg>
